<?xml version="1.0" ?><svg style="enable-background:new 0 0 512 512;" version="1.1" viewBox="0 0 512 512" xml:space="preserve" xmlns="http://www.w3.org/2000/svg" xmlns:xlink="http://www.w3.org/1999/xlink"><style type="text/css">
	.st0{fill:#16ADE1;}
	.st1{fill:#1B3954;}
</style><g id="Layer_1"/><g id="Layer_2"><g><rect class="st1" height="39.5" width="100" x="304.6" y="143.3"/><rect class="st0" height="59.3" width="35.5" x="336.8" y="74"/><polygon class="st1" points="372.3,49.3 354.6,32.8 336.8,49.3 336.8,64 372.3,64   "/><path class="st1" d="M328.3,339.8h21.3V414c0,30.5-24.8,55.3-55.3,55.3h-1.2c-30.5,0-55.3-24.8-55.3-55.3V236    c0-36-29.3-65.3-65.3-65.3c-17.4,0-33.8,6.8-46.1,19.1c-12.3,12.3-19.1,28.7-19.1,46.1v238.3c0,2.8,2.2,5,5,5s5-2.2,5-5V236    c0-14.8,5.7-28.6,16.2-39.1c10.4-10.4,24.3-16.2,39.1-16.2c30.5,0,55.3,24.8,55.3,55.3v178c0,36,29.3,65.3,65.3,65.3h1.2    c36,0,65.3-29.3,65.3-65.3v-74.3h21.3v-42h-52.6V339.8z"/><path class="st0" d="M304.6,192.8v63.2c0,12.1,4.3,23.2,11.5,31.8h2.2h72.6h2.2c7.2-8.6,11.5-19.7,11.5-31.8v-63.2H304.6z"/></g></g></svg>