<?xml version="1.0" encoding="UTF-8"?>
<svg width="163.76mm" height="75.406mm" version="1.1" viewBox="0 0 163.76 75.406" xmlns="http://www.w3.org/2000/svg" xmlns:cc="http://creativecommons.org/ns#" xmlns:dc="http://purl.org/dc/elements/1.1/" xmlns:rdf="http://www.w3.org/1999/02/22-rdf-syntax-ns#">
<defs>
<filter id="d" x="-.25" y="-.25" width="1.5" height="1.5" color-interpolation-filters="sRGB">
<feGaussianBlur in="SourceGraphic" result="result8" stdDeviation="5"/>
<feComposite in2="result8" operator="xor" result="result19"/>
<feComposite in2="result8" k2="1" operator="arithmetic" result="result17"/>
<feOffset in="result8" result="result18"/>
<feDisplacementMap in="result18" in2="result17" result="result4" scale="100"/>
<feComposite in="result4" in2="result4" k1="0.5" k3="0.5" operator="arithmetic" result="result2"/>
<feComposite in="result2" in2="result2" result="fbSourceGraphic"/>
<feComposite in2="fbSourceGraphic" operator="in" result="result15"/>
<feComposite in="result15" in2="result8" operator="in" result="result16"/>
</filter>
<filter id="c" x="-.25" y="-.25" width="1.5" height="1.5" color-interpolation-filters="sRGB">
<feGaussianBlur in="SourceGraphic" result="result8" stdDeviation="5"/>
<feComposite in2="result8" operator="xor" result="result19"/>
<feComposite in2="result8" k2="1" operator="arithmetic" result="result17"/>
<feOffset in="result8" result="result18"/>
<feDisplacementMap in="result18" in2="result17" result="result4" scale="100"/>
<feComposite in="result4" in2="result4" k1="0.5" k3="0.5" operator="arithmetic" result="result2"/>
<feComposite in="result2" in2="result2" result="fbSourceGraphic"/>
<feComposite in2="fbSourceGraphic" operator="in" result="result15"/>
<feComposite in="result15" in2="result8" operator="in" result="result16"/>
</filter>
<filter id="b" x="-.25" y="-.25" width="1.5" height="1.5" color-interpolation-filters="sRGB">
<feGaussianBlur in="SourceGraphic" result="result8" stdDeviation="5"/>
<feComposite in2="result8" operator="xor" result="result19"/>
<feComposite in2="result8" k2="1" operator="arithmetic" result="result17"/>
<feOffset in="result8" result="result18"/>
<feDisplacementMap in="result18" in2="result17" result="result4" scale="100"/>
<feComposite in="result4" in2="result4" k1="0.5" k3="0.5" operator="arithmetic" result="result2"/>
<feComposite in="result2" in2="result2" result="fbSourceGraphic"/>
<feComposite in2="fbSourceGraphic" operator="in" result="result15"/>
<feComposite in="result15" in2="result8" operator="in" result="result16"/>
</filter>
<filter id="a" x="-.25" y="-.25" width="1.5" height="1.5" color-interpolation-filters="sRGB">
<feGaussianBlur in="SourceGraphic" result="result8" stdDeviation="5"/>
<feComposite in2="result8" operator="xor" result="result19"/>
<feComposite in2="result8" k2="1" operator="arithmetic" result="result17"/>
<feOffset in="result8" result="result18"/>
<feDisplacementMap in="result18" in2="result17" result="result4" scale="100"/>
<feComposite in="result4" in2="result4" k1="0.5" k3="0.5" operator="arithmetic" result="result2"/>
<feComposite in="result2" in2="result2" result="fbSourceGraphic"/>
<feComposite in2="fbSourceGraphic" operator="in" result="result15"/>
<feComposite in="result15" in2="result8" operator="in" result="result16"/>
</filter>
</defs>
<metadata>
<rdf:RDF>
<cc:Work rdf:about="">
<dc:format>image/svg+xml</dc:format>
<dc:type rdf:resource="http://purl.org/dc/dcmitype/StillImage"/>
<dc:title/>
</cc:Work>
</rdf:RDF>
</metadata>
<g transform="translate(-2.5986 -116.42)" fill-rule="evenodd">
<rect x="119.06" y="145.65" width="37.835" height="16.961" rx="9.2604" ry="7.9375" fill="#fcaf3e" style="paint-order:markers stroke fill"/>
<rect x="119.06" y="145.65" width="37.835" height="16.961" rx="9.2604" ry="7.9375" fill="#ffa500" filter="url(#d)" style="paint-order:markers stroke fill"/>
<rect x="125.96" y="145.67" width="4.8192" height="16.958" fill="#8f5902" style="paint-order:markers stroke fill"/>
<rect x="107.16" y="141.13" width="22.416" height="26.138" rx="3.8743" ry="3.8743" fill="#dcdcdc" style="paint-order:markers stroke fill"/>
<rect x="8.1643" y="145.66" width="22.263" height="16.933" style="paint-order:markers stroke fill"/>
<rect x="19.882" y="145.66" width="10.546" height="16.933" style="paint-order:markers stroke fill"/>
<rect x="107.16" y="141.13" width="22.416" height="26.138" rx="3.8743" ry="3.8743" fill="#dcdcdc" filter="url(#a)" style="paint-order:markers stroke fill"/>
<rect x="107.16" y="141.13" width="4.8192" height="26.179" fill="#696969" style="paint-order:markers stroke fill"/>
<rect x="8.1643" y="145.66" width="22.263" height="16.933" filter="url(#b)" style="paint-order:markers stroke fill"/>
<path transform="scale(.26458)" d="m285 487.52c-80 0-107.99 42.909-135 45h-20c-11.03 1.6941-16.662 12.864-16.864 18.254v63.492c0.20194 5.3899 5.8331 16.56 16.864 18.254h20c27.013 2.0912 55 45 135 45h120c10 1.6e-4 10-9.9998 10-15v-160c1e-5 -4.9998 1e-5 -15-10-15z" fill="#b22222"/>
<path d="m75.406 128.99c-21.167 0-28.572 11.353-35.719 11.906h-5.2917c-2.9185 0.44822-4.4084 3.4036-4.4618 4.8297v16.799c0.05343 1.4261 1.5433 4.3815 4.4618 4.8297h5.2917c7.1471 0.55329 14.552 11.906 35.719 11.906h31.75c2.6458 4e-5 2.6458-2.6458 2.6458-3.9688v-42.333c1e-5 -1.3229 1e-5 -3.9687-2.6458-3.9688z" fill="#8b0000" filter="url(#c)"/>
</g>
</svg>
