<?xml version="1.0" encoding="UTF-8" standalone="no"?>
<svg
   xmlns:dc="http://purl.org/dc/elements/1.1/"
   xmlns:cc="http://creativecommons.org/ns#"
   xmlns:rdf="http://www.w3.org/1999/02/22-rdf-syntax-ns#"
   xmlns:svg="http://www.w3.org/2000/svg"
   xmlns="http://www.w3.org/2000/svg"
   id="svg8"
   version="1.1"
   viewBox="0 0 5.5761061 32.505959"
   height="32.505959mm"
   width="5.5761061mm">
  <defs
     id="defs2" />
  <metadata
     id="metadata5">
    <rdf:RDF>
      <cc:Work
         rdf:about="">
        <dc:format>image/svg+xml</dc:format>
        <dc:type
           rdf:resource="http://purl.org/dc/dcmitype/StillImage" />
        <dc:title></dc:title>
      </cc:Work>
    </rdf:RDF>
  </metadata>
  <g
     transform="translate(-57.451424,-126.91071)"
     id="layer1">
    <path
       id="path12824"
       d="m 60.475241,126.91071 c 0.972329,9.899 5.221627,16.64241 0,32.50596 l -3.023817,-0.37798 v -31.75 z"
       style="fill:#625a4f;fill-opacity:1;fill-rule:evenodd;stroke:none;stroke-width:0.26458332px;stroke-linecap:butt;stroke-linejoin:miter;stroke-opacity:1" />
    <path
       id="path12807"
       d="m 57.451424,127.28869 0.0945,15.875 3.401785,-0.0945 c 2.356631,-5.85756 1.140936,-11.0453 -0.472469,-16.15848 z"
       style="fill:#f3f8f9;fill-opacity:1;fill-rule:evenodd;stroke:none;stroke-width:0.26458332px;stroke-linecap:butt;stroke-linejoin:miter;stroke-opacity:1" />
    <path
       id="path12807-2"
       d="m 57.451424,159.03869 0.0945,-15.875 3.401785,0.0945 c 2.356631,5.85756 1.140936,11.0453 -0.472469,16.15848 z"
       style="fill:#9e9682;fill-opacity:1;fill-rule:evenodd;stroke:none;stroke-width:0.26458332px;stroke-linecap:butt;stroke-linejoin:miter;stroke-opacity:1" />
    <path
       id="path12807-9"
       d="m 44.785923,171.41086 0.0945,15.875 3.401785,-0.0945 c 2.356632,-5.85756 1.140936,-11.0453 -0.472469,-16.15848 z"
       style="fill:#f3f8f9;fill-opacity:1;fill-rule:evenodd;stroke:none;stroke-width:0.26458332px;stroke-linecap:butt;stroke-linejoin:miter;stroke-opacity:1" />
    <path
       id="path12938"
       d="M -66.239377,58.968504 C -51.42271,73.785176 -6.9727109,118.23519 7.8439556,133.05186 Z M 8.0310442,132.86478 C -6.7856222,118.0481 -51.235622,73.598088 -66.052288,58.781416 Z"
       style="fill:#000000;fill-rule:nonzero;stroke:none;stroke-width:0.26458332px;stroke-linecap:butt;stroke-linejoin:miter;stroke-opacity:1" />
  </g>
</svg>
