<?xml version="1.0" encoding="UTF-8" standalone="no"?>
<svg
   xmlns:dc="http://purl.org/dc/elements/1.1/"
   xmlns:cc="http://creativecommons.org/ns#"
   xmlns:rdf="http://www.w3.org/1999/02/22-rdf-syntax-ns#"
   xmlns:svg="http://www.w3.org/2000/svg"
   xmlns="http://www.w3.org/2000/svg"
   height="100.00002"
   width="381.25049"
   id="svg18"
   xml:space="preserve"
   viewBox="0 0 381.25049 100.00002"
   version="1.1"><metadata
     id="metadata24"><rdf:RDF><cc:Work
         rdf:about=""><dc:format>image/svg+xml</dc:format><dc:type
           rdf:resource="http://purl.org/dc/dcmitype/StillImage" /><dc:title></dc:title></cc:Work></rdf:RDF></metadata><defs
     id="defs22" /><style
     id="style2"
     type="text/css">
	.st0{fill:#16ADE1;}
	.st1{fill:#1B3954;}
</style><g
     transform="translate(-68.749526,-212)"
     id="Layer_1" /><rect
     transform="rotate(90)"
     style="fill:#000000"
     id="rect5-6"
     y="-270.75052"
     x="1.5258789e-05"
     width="100"
     height="39.5"
     class="st1" /><rect
     transform="rotate(90)"
     style="fill:#696969"
     id="rect7-5"
     y="-340.05051"
     x="32.199997"
     width="35.5"
     height="59.299999"
     class="st0" /><polygon
     transform="rotate(90,359.32525,54.725247)"
     style="fill:#000000"
     id="polygon9-3"
     points="354.6,32.8 336.8,49.3 336.8,64 372.3,64 372.3,49.3 "
     class="st1" /><path
     style="fill:#000000"
     id="path11-2"
     d="M 74.250474,23.7 V 45 H 0.05048 c 0,0 -0.11358,5.46489 0,10.1 H 74.350474 V 76.4 H 116.35047 V 23.8 H 74.250474 Z"
     class="st1" /><path
     style="fill:#696969"
     id="path13-7"
     d="m 221.25047,0 h -63.2 c -12.1,0 -23.2,4.3 -31.8,11.5 v 2.2 72.6 2.2 c 8.6,7.2 19.7,11.5 31.8,11.5 h 63.2 z"
     class="st0" /></svg>