<?xml version="1.0" encoding="UTF-8" standalone="no"?>
<svg
   xmlns:dc="http://purl.org/dc/elements/1.1/"
   xmlns:cc="http://creativecommons.org/ns#"
   xmlns:rdf="http://www.w3.org/1999/02/22-rdf-syntax-ns#"
   xmlns:svg="http://www.w3.org/2000/svg"
   xmlns="http://www.w3.org/2000/svg"
   xmlns:sodipodi="http://sodipodi.sourceforge.net/DTD/sodipodi-0.dtd"
   xmlns:inkscape="http://www.inkscape.org/namespaces/inkscape"
   height="60"
   viewBox="0 0 60 60"
   width="60"
   version="1.1"
   id="svg7"
   sodipodi:docname="close.svg"
   inkscape:version="0.92.4 (5da689c313, 2019-01-14)">
  <metadata
     id="metadata11">
    <rdf:RDF>
      <cc:Work
         rdf:about="">
        <dc:format>image/svg+xml</dc:format>
        <dc:type
           rdf:resource="http://purl.org/dc/dcmitype/StillImage" />
        <dc:title></dc:title>
      </cc:Work>
    </rdf:RDF>
  </metadata>
  <sodipodi:namedview
     pagecolor="#ffffff"
     bordercolor="#666666"
     borderopacity="1"
     objecttolerance="10"
     gridtolerance="10"
     guidetolerance="10"
     inkscape:pageopacity="0"
     inkscape:pageshadow="2"
     inkscape:window-width="1557"
     inkscape:window-height="677"
     id="namedview9"
     showgrid="false"
     inkscape:zoom="3.9333333"
     inkscape:cx="-36.228814"
     inkscape:cy="30"
     inkscape:window-x="0"
     inkscape:window-y="0"
     inkscape:window-maximized="0"
     inkscape:current-layer="svg7" />
  <defs
     id="defs4">
    <style
       id="style2">
      .cls-1 {
        fill: #9f4c4c;
        fill-rule: evenodd;
      }
    </style>
  </defs>
  <path
     class="cls-1"
     d="M940,510a30,30,0,1,1,30-30A30,30,0,0,1,940,510Zm15-20.047A3.408,3.408,0,0,1,955,494.77l-0.221.22a3.42,3.42,0,0,1-4.833,0l-8.764-8.755a1.71,1.71,0,0,0-2.417,0l-8.741,8.747a3.419,3.419,0,0,1-4.836,0l-0.194-.193a3.408,3.408,0,0,1,.017-4.842l8.834-8.735a1.7,1.7,0,0,0,0-2.43l-8.831-8.725a3.409,3.409,0,0,1-.018-4.844l0.193-.193a3.413,3.413,0,0,1,2.418-1c0.944,0,3.255,1.835,3.872,2.455l7.286,7.287a1.708,1.708,0,0,0,2.417,0l8.764-8.748a3.419,3.419,0,0,1,4.832,0L955,465.243a3.408,3.408,0,0,1,0,4.818l-8.727,8.737a1.7,1.7,0,0,0,0,2.407Z"
     id="uncheck"
     transform="translate(-910 -450)" />
</svg>
