<?xml version="1.0" encoding="UTF-8" standalone="no"?>
<svg
   xmlns:dc="http://purl.org/dc/elements/1.1/"
   xmlns:cc="http://creativecommons.org/ns#"
   xmlns:rdf="http://www.w3.org/1999/02/22-rdf-syntax-ns#"
   xmlns:svg="http://www.w3.org/2000/svg"
   xmlns="http://www.w3.org/2000/svg"
   xmlns:sodipodi="http://sodipodi.sourceforge.net/DTD/sodipodi-0.dtd"
   xmlns:inkscape="http://www.inkscape.org/namespaces/inkscape"
   height="60"
   viewBox="0 0 60 60"
   width="60"
   version="1.1"
   id="svg7"
   sodipodi:docname="close_sign.svg"
   inkscape:version="0.92.4 (5da689c313, 2019-01-14)">
  <metadata
     id="metadata11">
    <rdf:RDF>
      <cc:Work
         rdf:about="">
        <dc:format>image/svg+xml</dc:format>
        <dc:type
           rdf:resource="http://purl.org/dc/dcmitype/StillImage" />
        <dc:title></dc:title>
      </cc:Work>
    </rdf:RDF>
  </metadata>
  <sodipodi:namedview
     pagecolor="#ffffff"
     bordercolor="#666666"
     borderopacity="1"
     objecttolerance="10"
     gridtolerance="10"
     guidetolerance="10"
     inkscape:pageopacity="0"
     inkscape:pageshadow="2"
     inkscape:window-width="1557"
     inkscape:window-height="677"
     id="namedview9"
     showgrid="false"
     inkscape:zoom="3.9333333"
     inkscape:cx="-1.6525424"
     inkscape:cy="30"
     inkscape:window-x="0"
     inkscape:window-y="0"
     inkscape:window-maximized="0"
     inkscape:current-layer="svg7" />
  <defs
     id="defs4">
    <style
       id="style2">
      .cls-1 {
        fill: #9f4c4c;
        fill-rule: evenodd;
      }
    </style>
  </defs>
  <path
     style="opacity:1;fill:#800000;fill-opacity:1;fill-rule:evenodd;stroke:none;stroke-width:1.13385832;stroke-linecap:butt;stroke-linejoin:miter;stroke-miterlimit:4;stroke-dasharray:none;stroke-dashoffset:0;stroke-opacity:1;paint-order:markers stroke fill"
     d="m 42.414062,14.013672 c -0.924263,-0.0141 -1.81485,0.346643 -2.46875,1 l -8.763671,8.748047 c -0.667077,0.667375 -1.748939,0.667375 -2.416016,0 l -7.287109,-7.28711 c -0.617,-0.62 -2.927094,-2.455078 -3.871094,-2.455078 -0.906833,-0.0011 -1.776836,0.358676 -2.417969,1 l -0.193359,0.19336 c -1.341672,1.338733 -1.333775,3.51479 0.01758,4.84375 l 8.832031,8.724609 c 0.682422,0.66691 0.682422,1.764731 0,2.431641 l -8.833984,8.734375 c -1.350599,1.32851 -1.358496,3.503515 -0.01758,4.841796 l 0.193359,0.19336 c 1.335287,1.335697 3.500651,1.335697 4.835938,0 l 8.742187,-8.748047 c 0.667534,-0.666272 1.748482,-0.666272 2.416016,0 l 8.763671,8.755859 c 1.335292,1.333844 3.498693,1.333844 4.833985,0 L 45,44.769531 c 1.328752,-1.330536 1.328752,-3.48587 0,-4.816406 l -8.726562,-8.748047 c -0.665284,-0.664129 -0.665284,-1.742121 0,-2.40625 L 45,20.060547 c 1.330053,-1.33076 1.330053,-3.487599 0,-4.818359 l -0.222656,-0.228516 c -0.628044,-0.627532 -1.475564,-0.986152 -2.363282,-1 z"
     id="path13"
     inkscape:connector-curvature="0"
     sodipodi:nodetypes="ccccccccccccccccccccccccccc" />
</svg>
