<svg width="4.2333mm" height="4.2333mm" version="1.1" viewBox="0 0 4.2333 4.2333" xmlns="http://www.w3.org/2000/svg">
 <g transform="translate(-90.653 -97.395)">
  <path d="m93.444 99.19q0-0.16979-0.19552-0.16979-0.13378 0-0.29843 0.26241-0.16465 0.25727-0.23668 0.5557v0.0103q0 0.17494 0.05145 0.36017 0.0566 0.18524 0.0566 0.25727 0 0.17494-0.43736 0.34474-0.06689 0.0257-0.11834 0.0257-0.12863 0-0.18009-0.13378-0.04631-0.13378-0.04631-0.36018 0-0.23154 0.01029-0.4322 0.01543-0.20582 0.02573-0.37561 0.01543-0.17495 0.02573-0.30358 0.01543-0.13378 0.01543-0.2161 0-0.17495-0.15951-0.17495-0.1595 0-0.37046 0.37561-0.21096 0.37047-0.21096 0.59172 0 0.2161 0.05145 0.40134 0.0566 0.18523 0.0566 0.25726 0 0.17494-0.43735 0.34474-0.06689 0.0257-0.11834 0.0257-0.12863 0-0.18009-0.13378-0.04631-0.13378-0.04631-0.41163 0-0.73064 0.0566-1.0548 0.07718-0.47852 0.34988-0.90558 0.09262-0.14407 0.20067-0.14407 0.1698 0 0.31387 0.27785 0.04116 0.072 0.06174 0.13377 0.24698-0.30872 0.58142-0.30872 0.22125 0 0.39619 0.14922 0.17494 0.14407 0.17494 0.36532v0.0566q0.31387-0.39105 0.76666-0.39105 0.27785 0 0.42192 0.14407t0.14407 0.35503-0.03087 0.38076q-0.03087 0.16979-0.07203 0.319-0.03602 0.14922-0.06689 0.26756-0.03087 0.1132-0.03087 0.18009 0 0.0617 0.04116 0.0617 0.07718 0 0.19038-0.0978t0.2264-0.21095q0.1132-0.11835 0.20581-0.21611 0.09776-0.0978 0.13378-0.0978 0.07203 0 0.07203 0.17494 0 0.36018-0.36532 0.69977-0.36018 0.33959-0.7718 0.33959-0.37046 0-0.37046-0.67404 0-0.1698 0.0566-0.46823t0.0566-0.43735z" fill="#4e9a06"/>
 </g>
</svg>
