<svg width="10" height="10" version="1.1" viewBox="0 0 10 10" xmlns="http://www.w3.org/2000/svg">
 <g transform="matrix(1.429 0 0 1.429 -2.1449 -2.1449)" fill="#3465a4" stroke-width=".36524" aria-label="?">
  <path d="m7.4967 3.9121q0 1.12-0.66342 1.7406-0.49934 0.47081-1.013 0.47081v0.37808h-1.4338v-1.7406q0.38521 0.16407 0.59921 0.16407 0.42088 0 0.70622-0.29247 0.28534-0.29247 0.28534-0.70622 0-0.41374-0.29961-0.70622-0.29961-0.29961-0.69195-0.29961-0.34954 0-0.65628 0.27107-0.30674 0.27107-0.34954 0.62061l-1.4766-0.1926q0.18547-0.90595 0.81322-1.4838 0.68482-0.63488 1.6692-0.63488 1.1128 0 1.8119 0.68482 0.69908 0.67768 0.69908 1.7263zm-1.548 3.7594q0 0.34954-0.24967 0.59208-0.24254 0.23541-0.59208 0.23541-0.35667 0-0.60635-0.23541-0.24254-0.24254-0.24254-0.59208t0.24254-0.59921q0.24967-0.24967 0.60635-0.24967 0.34954 0 0.59208 0.24967 0.24967 0.24967 0.24967 0.59921z"/>
 </g>
</svg>
