<?xml version="1.0" encoding="UTF-8"?>
<svg width="26.604mm" height="19.569mm" version="1.1" viewBox="0 0 26.604 19.569" xmlns="http://www.w3.org/2000/svg" xmlns:cc="http://creativecommons.org/ns#" xmlns:dc="http://purl.org/dc/elements/1.1/" xmlns:rdf="http://www.w3.org/1999/02/22-rdf-syntax-ns#" xmlns:xlink="http://www.w3.org/1999/xlink">
 <defs>
  <linearGradient id="linearGradient25288">
   <stop stop-color="#888a85" offset="0"/>
   <stop stop-color="#fff" stop-opacity=".19203" offset="1"/>
  </linearGradient>
  <linearGradient id="linearGradient9727">
   <stop stop-color="#888a85" offset="0"/>
   <stop stop-color="#fff" stop-opacity="0" offset="1"/>
  </linearGradient>
  <linearGradient id="linearGradient8826" x1="35.222" x2="35.178" y1="22.432" y2="19.918" gradientTransform="rotate(98.062,26.834,3.7418)" gradientUnits="userSpaceOnUse">
   <stop stop-color="#949489" offset="0"/>
   <stop stop-color="#7e817d" offset="1"/>
  </linearGradient>
  <linearGradient id="linearGradient9234" x1="40.907" x2="43.343" y1="27.204" y2="26.645" gradientTransform="matrix(-.13989 .99017 -.90812 -.12899 32.552 -22.543)" gradientUnits="userSpaceOnUse" spreadMethod="reflect">
   <stop stop-color="#949485" offset="0"/>
   <stop stop-color="#848583" offset="1"/>
  </linearGradient>
  <radialGradient id="radialGradient9721" cx="40.792" cy="26.042" r="8.0033" gradientTransform="matrix(.19322 .20883 -.29799 .72234 3.1421 -13.723)" gradientUnits="userSpaceOnUse" xlink:href="#linearGradient25288"/>
  <radialGradient id="radialGradient10173" cx="33.496" cy="23.719" r="8.0033" gradientTransform="matrix(.010668 .57684 -.50966 .085237 15.277 -14.895)" gradientUnits="userSpaceOnUse" xlink:href="#linearGradient9727"/>
  <linearGradient id="linearGradient15646" x1="33.779" x2="34.061" y1="30.686" y2="27.811" gradientTransform="matrix(1.0918 0 0 .24296 -27.802 -12.548)" gradientUnits="userSpaceOnUse" spreadMethod="reflect">
   <stop stop-color="#c6c6bf" offset="0"/>
   <stop stop-color="#eeeeec" stop-opacity=".81341" offset="1"/>
  </linearGradient>
  <linearGradient id="linearGradient21260" x1="35.222" x2="35.178" y1="22.432" y2="19.918" gradientTransform="matrix(-.12456 .98706 -.67486 -.15886 24.751 -20.78)" gradientUnits="userSpaceOnUse" xlink:href="#linearGradient8826"/>
  <linearGradient id="linearGradient21262" x1="40.907" x2="43.343" y1="27.204" y2="26.645" gradientTransform="matrix(-.096074 .98796 -.43355 -.14055 18.521 -21.203)" gradientUnits="userSpaceOnUse" spreadMethod="reflect" xlink:href="#linearGradient9234"/>
  <radialGradient id="radialGradient36469" cx="18.653" cy="-3.1473" r="8.0971" gradientTransform="matrix(.263 -.078515 .062183 .15914 2.0011 -1.44)" gradientUnits="userSpaceOnUse" xlink:href="#linearGradient15646"/>
  <radialGradient id="radialGradient36469-1" cx="18.653" cy="-3.1473" r="8.0971" gradientTransform="matrix(.263 -.078515 .062183 .15914 2.1112 -1.3507)" gradientUnits="userSpaceOnUse" xlink:href="#linearGradient15646"/>
  <radialGradient id="radialGradient10173-3" cx="33.496" cy="23.719" r="8.0033" gradientTransform="matrix(.027817 .57627 -.5069 .10035 13.826 -15.996)" gradientUnits="userSpaceOnUse" xlink:href="#linearGradient9727"/>
  <radialGradient id="radialGradient9721-8" cx="40.792" cy="26.042" r="8.0033" gradientTransform="matrix(.19934 .20299 -.27638 .73088 1.7315 -14.463)" gradientUnits="userSpaceOnUse" spreadMethod="reflect" xlink:href="#linearGradient25288"/>
  <radialGradient id="radialGradient36469-12" cx="18.653" cy="-3.1473" r="8.0971" gradientTransform="matrix(.263 -.078515 .062183 .15914 1.536 -.41286)" gradientUnits="userSpaceOnUse" xlink:href="#linearGradient15646"/>
  <radialGradient id="radialGradient36469-1-9" cx="18.653" cy="-3.1473" r="8.0971" gradientTransform="matrix(.263 -.078515 .062183 .15914 1.6461 -.32358)" gradientUnits="userSpaceOnUse" xlink:href="#linearGradient15646"/>
  <radialGradient id="radialGradient18194-9" cx="33.578" cy="28.395" r="3.8846" gradientTransform="matrix(1.5755 .53713 -2.0906 .21357 13.32 -25.481)" gradientUnits="userSpaceOnUse">
   <stop offset="0"/>
   <stop stop-opacity="0" offset="1"/>
  </radialGradient>
  <linearGradient id="linearGradient42098" x1="35.222" x2="35.178" y1="22.432" y2="19.918" gradientTransform="matrix(-.095155 .99033 -.67929 -.13873 23.121 -22.159)" gradientUnits="userSpaceOnUse" xlink:href="#linearGradient8826"/>
  <linearGradient id="linearGradient42100" x1="40.907" x2="43.343" y1="27.204" y2="26.645" gradientTransform="matrix(-.066654 .99038 -.43754 -.1276 16.881 -22.397)" gradientUnits="userSpaceOnUse" spreadMethod="reflect" xlink:href="#linearGradient9234"/>
  <filter id="filter42154" x="-.33266" y="-.11433" width="1.7866" height="1.2882" color-interpolation-filters="sRGB">
   <feFlood flood-color="rgb(0,0,12)" flood-opacity=".27451" result="flood"/>
   <feComposite in="flood" in2="SourceGraphic" operator="in" result="composite1"/>
   <feGaussianBlur in="composite1" result="blur" stdDeviation="0.8"/>
   <feOffset dx="0.7" dy="1" result="offset"/>
   <feComposite in="offset" in2="SourceGraphic" operator="out" result="composite2"/>
  </filter>
  <filter id="filter10384" x="-.31901" y="-.11326" width="1.7709" height="1.2501" color-interpolation-filters="sRGB">
   <feFlood flood-color="rgb(0,0,12)" flood-opacity=".27451" result="flood"/>
   <feComposite in="flood" in2="SourceGraphic" operator="in" result="composite1"/>
   <feGaussianBlur in="composite1" result="blur" stdDeviation="0.8"/>
   <feOffset dx="0.8" dy="0.4" result="offset"/>
   <feComposite in="offset" in2="SourceGraphic" operator="out" result="composite2"/>
  </filter>
  <linearGradient id="f" x1="18.363" x2="13.393" y1="2.4359" y2="14.948" gradientTransform="matrix(.67152 .017738 .020491 -.5813 -8.6859 12.496)" gradientUnits="userSpaceOnUse" xlink:href="#d"/>
  <linearGradient id="d">
   <stop offset="0"/>
   <stop stop-color="#3f3f3f" offset="1"/>
  </linearGradient>
  <linearGradient id="p" x1="27.619" x2="27.895" y1=".104" y2="14.598" gradientTransform="matrix(.67152 .01774 .020493 -.5813 -10.717 12.329)" gradientUnits="userSpaceOnUse" xlink:href="#d"/>
  <radialGradient id="radialGradient2728" cx="33.578" cy="28.395" r="3.8846" gradientTransform="matrix(1.5755 .53713 -2.0906 .21357 14.115 -26.489)" gradientUnits="userSpaceOnUse">
   <stop offset="0"/>
   <stop stop-opacity="0" offset="1"/>
  </radialGradient>
 </defs>
 <metadata>
  <rdf:RDF>
   <cc:Work rdf:about="">
    <dc:format>image/svg+xml</dc:format>
    <dc:type rdf:resource="http://purl.org/dc/dcmitype/StillImage"/>
   </cc:Work>
  </rdf:RDF>
 </metadata>
 <g transform="translate(18.741 -.059121)" filter="url(#filter10384)">
  <path d="m6.7727 6.2438-3.493 0.090065-0.66621 7.6823 3.4572 0.79659z" fill="url(#linearGradient21260)" stroke-width=".8282"/>
  <path d="m5.5476 0.52917-2.671 0.35948 0.19654 5.7386 3.6996-0.38349" fill="#cdcdcb" stroke-width=".79203"/>
  <path d="m6.0707 14.813-1.7752 2.6686-2.6602-0.38734 1.7666-3.0759z" fill="url(#linearGradient21262)" stroke-width=".66471"/>
  <g stroke-width=".7713">
   <path d="m3.4585 9.9988c-0.34924 4.6818 0.61835 4.2422 2.6123 4.814-1.2663-0.20806-1.6956-0.02167-2.4416 0.32079-0.8597 0.39464-1.3164 1.5895-2.1146 1.8926-0.51372-2.2831-0.30949-5.7989-0.57999-8.1929l1.4454-7.9593 3.1676-0.34483c-0.91468 0.35912-2.6993-0.18983-2.2246 2.9705 0.34408 2.2911 3.1862 2.7334 3.4497 2.744-2.7982 0.55054-3.1393 1.7793-3.3143 3.755z" fill="#d7d7d3"/>
   <path d="m3.4977 9.8373c-0.25715 3.8365 1.1102 3.3579 2.0666 4.8583-1.2509 0.08485-1.4238 0.30862-2.1151 0.53412-0.72923 0.23786-1.5051 1.3112-2.1342 0.86046l-0.38052-7.257 1.4782-7.7133 0.89872-0.18006s-0.18806 0.007011-5e-3 2.3914c0.18869 2.4577 2.9278 2.6452 3.4664 2.9126-2.6134 0.47462-3.1288 1.8016-3.2751 3.5935z" fill="url(#radialGradient10173)"/>
   <path d="m6.7727 6.2438c-1.2767 0.365-3.0754 0.74343-3.3139 3.4683-0.37771 4.315 0.44341 4.716 2.6118 5.1006-1.0982-0.19684-1.7535-0.01486-2.5095 0.36305-0.81046 0.40512-1.5451 1.9014-1.9259 1.9182-1.342-1.4128-1.1336-13.053 0.50648-15.23l0.23814-0.99032 3.1677-0.34447c-1.3508 0.62881-2.6079-0.12039-2.1506 3.2606 0.19975 1.4767 2.2998 2.3477 3.3757 2.454z" fill="url(#radialGradient9721)"/>
  </g>
  <ellipse transform="matrix(-.048709 .99881 -.97738 -.21151 0 0)" cx="8.4008" cy="-2.6017" rx="8.0971" ry="1.3208" fill="url(#radialGradient36469)" stroke-width=".5146"/>
  <ellipse transform="matrix(-.048709 .99881 -.97738 -.21151 0 0)" cx="8.511" cy="-2.5125" rx="8.0971" ry="1.3208" fill="url(#radialGradient36469-1)" stroke-width=".5146"/>
  <ellipse transform="matrix(-.049094 .99879 -.9785 -.20623 0 0)" cx="8.8487" cy="-2.2008" rx="5.1032" ry=".7341" fill="#d3d7cf" stroke-width=".49887"/>
  <ellipse transform="matrix(-.035188 .99938 -.99232 .12366 0 0)" cx="9.4191" cy="-1.9652" rx="4.8914" ry=".5938" fill="#555753" fill-opacity=".5735" stroke-width=".48106"/>
  <ellipse transform="matrix(-.025807 .99967 -.99372 .11186 0 0)" cx="9.0622" cy="-1.9381" rx="4.5648" ry=".52305" fill="url(#radialGradient2728)" stroke-width=".51491"/>
 </g>
 <g transform="matrix(.71606 .021302 -.020309 .68269 20.515 5.9406)" filter="url(#filter42154)">
  <path d="m4.4481-0.1-2.5475 0.25043 0.065001 5.6113 3.8649-0.59438" fill="#cdcdcb" stroke-width=".79203"/>
  <path d="m5.8305 5.1673-3.2734-0.089986-0.52911 8.2026 3.4794 0.69344z" fill="url(#linearGradient42098)" stroke-width=".8282"/>
  <path d="m5.5074 13.973-1.6951 2.7202-2.6706-0.30806 1.6743-3.1271z" fill="url(#linearGradient42100)" stroke-width=".66471"/>
  <g stroke-width=".7713">
   <path d="m5.8305 5.1673c-1.3284 0.26761-2.9752 2.3736-3.0774 4.0719-0.10972 1.8224 0.74423 4.222 2.7543 4.7342-1.2719-0.17031-1.7248 0.43143-2.503 0.84322-0.73397 0.3884-1.1966 1.178-1.9855 1.5047-0.58138-2.2668-0.48179-5.7872-0.82336-8.1721l1.2081-7.9987 3.0444-0.25043c-0.93727-0.028683-2.2179 1.6989-2.0238 2.847 0.23224 1.3734 1.2758 2.0359 3.4062 2.4204z" fill="#d7d7d3"/>
   <path d="m5.8306 5.1672c-1.0715 0.064115-2.8539 2.2689-3.043 3.9094-0.20149 1.7483 1.2096 3.3234 2.2101 4.7947-1.2478 0.12201-1.414 0.35082-2.0983 0.59678-0.72183 0.25944-1.4655 1.3553-2.1077 0.92354l-0.59615-7.2425 1.2482-7.7539 0.89297-0.20671s-0.07576 1.1511 0.066111 2.3905c0.25912 2.2637 2.4514 2.2218 3.4277 2.5881z" fill="url(#radialGradient10173-3)"/>
   <path d="m5.8306 5.1672c-1.0715 0.064115-2.9675 2.2714-3.0918 3.9349-0.13916 1.8625 0.99385 4.5179 2.7686 4.8713-1.1058-0.23867-1.36 0.16761-1.9637 0.46427-0.92517 0.45466-2.0218 1.9198-2.402 1.9479-1.3834-1.3723-1.5212-13.013 0.053383-15.238l0.20858-0.99696 3.0441-0.25043c-1.4175 0.28741-2.21 1.8933-1.9529 3.082 0.28101 1.2992 2.1579 2.1083 3.3356 2.1852z" fill="url(#radialGradient9721-8)"/>
  </g>
  <ellipse transform="matrix(-.018987 .99982 -.98323 -.18236 0 0)" cx="7.9358" cy="-1.5746" rx="8.0971" ry="1.3208" fill="url(#radialGradient36469-12)" stroke-width=".5146"/>
  <ellipse transform="matrix(-.018987 .99982 -.98323 -.18236 0 0)" cx="8.046" cy="-1.4854" rx="8.0971" ry="1.3208" fill="url(#radialGradient36469-1-9)" stroke-width=".5146"/>
  <ellipse transform="matrix(-.019373 .99981 -.9842 -.17704 0 0)" cx="8.3782" cy="-1.1745" rx="5.1032" ry=".7341" fill="#d3d7cf" stroke-width=".49887"/>
  <ellipse transform="matrix(-.0054544 .99999 -.98821 .15311 0 0)" cx="8.611" cy="-.94771" rx="4.8914" ry=".5938" fill="#555753" fill-opacity=".5735" stroke-width=".48106"/>
  <ellipse transform="matrix(.0039306 .99999 -.98996 .14136 0 0)" cx="8.2674" cy="-.9301" rx="4.5648" ry=".52305" fill="url(#radialGradient18194-9)" opacity=".51623" stroke-width=".51491"/>
 </g>
 <g transform="translate(18.741 -.059121)">
  <path d="m6.7727 6.2438-3.493 0.090065-0.66621 7.6823 3.4572 0.79659z" fill="url(#linearGradient21260)" stroke-width=".8282"/>
  <path d="m5.5476 0.52917-2.671 0.35948 0.19654 5.7386 3.6996-0.38349" fill="#cdcdcb" stroke-width=".79203"/>
  <path d="m6.0707 14.813-1.7752 2.6686-2.6602-0.38734 1.7666-3.0759z" fill="url(#linearGradient21262)" stroke-width=".66471"/>
  <g stroke-width=".7713">
   <path d="m3.4585 9.9988c-0.34924 4.6818 0.61835 4.2422 2.6123 4.814-1.2663-0.20806-1.6956-0.02167-2.4416 0.32079-0.8597 0.39464-1.3164 1.5895-2.1146 1.8926-0.51372-2.2831-0.30949-5.7989-0.57999-8.1929l1.4454-7.9593 3.1676-0.34483c-0.91468 0.35912-2.6993-0.18983-2.2246 2.9705 0.34408 2.2911 3.1862 2.7334 3.4497 2.744-2.7982 0.55054-3.1393 1.7793-3.3143 3.755z" fill="#d7d7d3"/>
   <path d="m3.4977 9.8373c-0.25715 3.8365 1.1102 3.3579 2.0666 4.8583-1.2509 0.08485-1.4238 0.30862-2.1151 0.53412-0.72923 0.23786-1.5051 1.3112-2.1342 0.86046l-0.38052-7.257 1.4782-7.7133 0.89872-0.18006s-0.18806 0.007011-5e-3 2.3914c0.18869 2.4577 2.9278 2.6452 3.4664 2.9126-2.6134 0.47462-3.1288 1.8016-3.2751 3.5935z" fill="url(#radialGradient10173)"/>
   <path d="m6.7727 6.2438c-1.2767 0.365-3.0754 0.74343-3.3139 3.4683-0.37771 4.315 0.44341 4.716 2.6118 5.1006-1.0982-0.19684-1.7535-0.01486-2.5095 0.36305-0.81046 0.40512-1.5451 1.9014-1.9259 1.9182-1.342-1.4128-1.1336-13.053 0.50648-15.23l0.23814-0.99032 3.1677-0.34447c-1.3508 0.62881-2.6079-0.12039-2.1506 3.2606 0.19975 1.4767 2.2998 2.3477 3.3757 2.454z" fill="url(#radialGradient9721)"/>
  </g>
  <ellipse transform="matrix(-.048709 .99881 -.97738 -.21151 0 0)" cx="8.4008" cy="-2.6017" rx="8.0971" ry="1.3208" fill="url(#radialGradient36469)" stroke-width=".5146"/>
  <ellipse transform="matrix(-.048709 .99881 -.97738 -.21151 0 0)" cx="8.511" cy="-2.5125" rx="8.0971" ry="1.3208" fill="url(#radialGradient36469-1)" stroke-width=".5146"/>
  <ellipse transform="matrix(-.049094 .99879 -.9785 -.20623 0 0)" cx="8.8487" cy="-2.2008" rx="5.1032" ry=".7341" fill="#d3d7cf" stroke-width=".49887"/>
  <ellipse transform="matrix(-.035188 .99938 -.99232 .12366 0 0)" cx="9.4191" cy="-1.9652" rx="4.8914" ry=".5938" fill="#555753" fill-opacity=".5735" stroke-width=".48106"/>
  <ellipse transform="matrix(-.025807 .99967 -.99372 .11186 0 0)" cx="9.0622" cy="-1.9381" rx="4.5648" ry=".52305" fill="url(#radialGradient2728)" stroke-width=".51491"/>
 </g>
 <g transform="matrix(1 0 0 .94389 2.1167 .4466)" fill-rule="evenodd">
  <path d="m1.3082 11.342c-0.51842-0.0137-0.89248-1.2432-0.83913-2.7568 0.05333-1.5125 0.51328-2.72 1.0317-2.7062l2.3234 0.061374c-0.28272 0.7175-0.46961 1.6336-0.50505 2.6387-0.0382 1.0835 0.10712 2.0712 0.37558 2.8262z" fill="url(#f)" stroke-width=".62508" style="paint-order:markers stroke fill"/>
  <path d="m4.686 12.849c-1.0371-0.0274-1.8057-1.9358-1.723-4.2791 0.0826-2.3431 0.98413-4.2075 2.0212-4.1801l0.1933 0.00511 0.0036-2.107e-4 13.498 0.29861-1.1e-5 3.073e-4c0.47964 1.47 0.26258 8.1077-0.47872 8.4571z" fill="url(#p)" stroke-width=".16539" style="paint-order:markers stroke fill"/>
 </g>
</svg>
