<?xml version="1.0" encoding="UTF-8" standalone="no"?>
<svg
   xmlns:dc="http://purl.org/dc/elements/1.1/"
   xmlns:cc="http://creativecommons.org/ns#"
   xmlns:rdf="http://www.w3.org/1999/02/22-rdf-syntax-ns#"
   xmlns:svg="http://www.w3.org/2000/svg"
   xmlns="http://www.w3.org/2000/svg"
   xmlns:xlink="http://www.w3.org/1999/xlink"
   id="svg80"
   version="1.1"
   width="52.893932"
   height="9.808548"
   viewBox="0 0 78.464975 14.553">
  <metadata
     id="metadata84">
    <rdf:RDF>
      <cc:Work
         rdf:about="">
        <dc:format>image/svg+xml</dc:format>
        <dc:type
           rdf:resource="http://purl.org/dc/dcmitype/StillImage" />
        <dc:title></dc:title>
      </cc:Work>
    </rdf:RDF>
  </metadata>
  <defs
     id="defs46">
    <linearGradient
       id="c">
      <stop
         id="stop2"
         stop-color="#eccd7e"
         offset="0" />
      <stop
         id="stop4"
         stop-color="#e0ae24"
         offset="1" />
    </linearGradient>
    <linearGradient
       id="e">
      <stop
         id="stop7"
         stop-color="#b8860b"
         offset="0" />
      <stop
         id="stop9"
         stop-opacity="0"
         stop-color="#b8860b"
         offset="1" />
    </linearGradient>
    <linearGradient
       id="a">
      <stop
         id="stop12"
         stop-color="#eccd7e"
         offset="0" />
      <stop
         id="stop14"
         stop-color="#e0ae24"
         offset="1" />
    </linearGradient>
    <linearGradient
       id="d">
      <stop
         id="stop17"
         offset="0" />
      <stop
         id="stop19"
         stop-color="#3f3f3f"
         offset="1" />
    </linearGradient>
    <linearGradient
       id="b">
      <stop
         id="stop22"
         stop-color="#e4b847"
         offset="0" />
      <stop
         id="stop24"
         stop-color="#eccd7e"
         offset="1" />
    </linearGradient>
    <linearGradient
       xlink:href="#a"
       id="i"
       x1="41.858002"
       y1="14.403"
       x2="44.917"
       y2="0.114"
       gradientUnits="userSpaceOnUse" />
    <linearGradient
       xlink:href="#b"
       id="j"
       x1="52.48"
       y1="3.523"
       x2="52.734001"
       y2="10.472"
       gradientUnits="userSpaceOnUse" />
    <linearGradient
       xlink:href="#b"
       id="h"
       x1="69.525002"
       y1="4.4699998"
       x2="70.797997"
       y2="9.3310003"
       gradientUnits="userSpaceOnUse" />
    <linearGradient
       xlink:href="#b"
       id="r"
       x1="73.306"
       y1="9.1049995"
       x2="70.735001"
       y2="5.0710001"
       gradientUnits="userSpaceOnUse" />
    <linearGradient
       xlink:href="#c"
       id="g"
       x1="64.111"
       y1="10.367"
       x2="65.820999"
       y2="3.609"
       gradientUnits="userSpaceOnUse" />
    <linearGradient
       xlink:href="#d"
       id="p"
       x1="27.618999"
       y1="0.104"
       x2="27.895"
       y2="14.598"
       gradientUnits="userSpaceOnUse"
       gradientTransform="scale(0.99998805)" />
    <linearGradient
       xlink:href="#d"
       id="f"
       x1="11.649"
       y1="2.503"
       x2="7.9289999"
       y2="11.095"
       gradientUnits="userSpaceOnUse" />
    <linearGradient
       xlink:href="#d"
       id="n"
       x1="55.869999"
       y1="3.539"
       x2="56.036999"
       y2="10.435"
       gradientUnits="userSpaceOnUse" />
    <linearGradient
       xlink:href="#d"
       id="o"
       gradientUnits="userSpaceOnUse"
       x1="62.780998"
       y1="3.539"
       x2="62.835999"
       y2="10.397" />
    <linearGradient
       xlink:href="#e"
       id="k"
       x1="42.577999"
       y1="3.539"
       x2="42.696999"
       y2="6.96"
       gradientUnits="userSpaceOnUse" />
    <linearGradient
       xlink:href="#e"
       id="q"
       x1="64.814003"
       y1="4.6500001"
       x2="64.82"
       y2="6.9520001"
       gradientUnits="userSpaceOnUse" />
    <linearGradient
       xlink:href="#e"
       id="l"
       x1="71.094002"
       y1="4.3210001"
       x2="71.211998"
       y2="7.125"
       gradientUnits="userSpaceOnUse" />
    <linearGradient
       xlink:href="#a"
       id="t"
       gradientUnits="userSpaceOnUse"
       x1="43.419998"
       y1="18.371"
       x2="39.848999"
       y2="3.3169999" />
    <filter
       style="color-interpolation-filters:sRGB"
       id="m"
       x="-0.032000002"
       width="1.063"
       y="-0.56800002"
       height="2.135">
      <feGaussianBlur
         id="feGaussianBlur40"
         stdDeviation=".25" />
    </filter>
    <filter
       style="color-interpolation-filters:sRGB"
       id="s"
       x="-0.092"
       width="1.184"
       y="-0.50599998"
       height="2.0109999">
      <feGaussianBlur
         id="feGaussianBlur43"
         stdDeviation=".211" />
    </filter>
  </defs>
  <path
     style="fill-rule:evenodd;stroke-width:1;paint-order:markers stroke fill"
     id="path48"
     d="M -0.00664623,5.224 V 9.061 H 14.06739 A 25.333265,14.724 0 0 1 13.855763,7.135 c 0,-0.682 0.07398,-1.327 0.206465,-1.91 z" />
  <path
     style="fill:url(#f);fill-rule:evenodd;paint-order:markers stroke fill"
     id="path50"
     d="m 14.80839,2.436 c -0.772,0 -1.393,2.096 -1.393,4.7 0,2.602 0.621,4.698 1.393,4.698 h 3.46 c -0.383,-1.246 -0.613,-2.829 -0.613,-4.558 0,-1.864 0.268,-3.555 0.707,-4.84 z" />
  <path
     style="fill:url(#g);fill-rule:evenodd;paint-order:markers stroke fill"
     id="path52"
     d="m 68.79839,3.54 c -0.029,0.002 -0.058,0.003 -0.087,0.01 a 0.855,0.855 0 0 0 -0.3,0.138 1.224,1.224 0 0 0 -0.141,0.117 c -0.184,0.177 -0.35,0.432 -0.488,0.748 a 5.434,5.434 0 0 0 -0.38,1.433 7.573,7.573 0 0 0 -0.07,1.042 7.96,7.96 0 0 0 0.032,0.706 c 0.01,0.114 0.023,0.226 0.038,0.336 0.075,0.548 0.206,1.037 0.38,1.432 0.139,0.316 0.304,0.572 0.488,0.748 0.046,0.045 0.093,0.083 0.14,0.117 h 10e-4 a 0.95,0.95 0 0 0 0.147,0.087 c 0.05,0.023 0.101,0.04 0.153,0.052 0.025,0.006 0.051,0.006 0.077,0.01 a 0.902,0.902 0 0 0 0.52,-0.265 c 0.137,-0.133 0.265,-0.31 0.379,-0.523 0.076,-0.143 0.145,-0.301 0.207,-0.474 0.094,-0.259 0.172,-0.549 0.23,-0.863 0.077,-0.418 0.12,-0.879 0.12,-1.363 0,-0.484 -0.043,-0.945 -0.12,-1.364 a 5.474,5.474 0 0 0 -0.23,-0.863 3.665,3.665 0 0 0 -0.207,-0.473 2.07,2.07 0 0 0 -0.38,-0.523 1.222,1.222 0 0 0 -0.14,-0.117 0.82,0.82 0 0 0 -0.369,-0.149 z" />
  <path
     style="fill:url(#h);fill-rule:evenodd"
     id="path54"
     d="m 75.82039,4.327 -6.204,0.314 -0.502,0.01 c -0.57,0.01 -1.04,0.837 -1.04,2.287 0,1.45 0.444,2.466 1.013,2.466 h 0.53 l 6.228,0.148 c -0.558,-0.032 -1.004,-1.184 -1.004,-2.614 0,-1.408 0.433,-2.545 0.979,-2.61 z" />
  <path
     style="fill:url(#i);paint-order:markers stroke fill"
     id="path56"
     d="m 46.48039,0 c -1.544,0 -2.788,3.246 -2.788,7.277 0,4.03 1.244,7.276 2.788,7.276 1.544,0 2.788,-3.246 2.788,-7.276 0,-4.031 -1.244,-7.277 -2.788,-7.277 z" />
  <path
     style="fill:url(#j);fill-rule:evenodd;paint-order:markers stroke fill"
     id="path58"
     d="m 46.88439,3.538 a 0.701,0.701 0 0 0 -0.157,0.018 0.855,0.855 0 0 0 -0.3,0.139 1.224,1.224 0 0 0 -0.141,0.117 c -0.184,0.177 -0.35,0.432 -0.488,0.748 a 5.434,5.434 0 0 0 -0.38,1.433 7.574,7.574 0 0 0 -0.07,1.042 7.96,7.96 0 0 0 0.032,0.706 c 0.01,0.114 0.023,0.226 0.038,0.336 0.075,0.548 0.207,1.037 0.38,1.432 0.139,0.316 0.304,0.572 0.488,0.748 0.046,0.045 0.093,0.083 0.14,0.117 h 0.002 a 0.95,0.95 0 0 0 0.147,0.087 0.774,0.774 0 0 0 0.31,0.07 h 21.955 l -0.007,-0.024 c -0.013,0.002 -0.025,0.006 -0.037,0.007 -0.026,-0.003 -0.052,-0.003 -0.077,-0.009 a 0.774,0.774 0 0 1 -0.153,-0.052 0.95,0.95 0 0 1 -0.147,-0.087 h -0.001 a 1.213,1.213 0 0 1 -0.141,-0.116 c -0.184,-0.177 -0.35,-0.433 -0.488,-0.749 a 5.434,5.434 0 0 1 -0.38,-1.432 7.739,7.739 0 0 1 -0.061,-1.4 c 0.01,-0.236 0.031,-0.465 0.061,-0.684 a 5.434,5.434 0 0 1 0.38,-1.433 c 0.139,-0.316 0.304,-0.571 0.488,-0.747 0.046,-0.045 0.093,-0.084 0.14,-0.118 a 0.855,0.855 0 0 1 0.301,-0.139 c 0.024,-0.005 0.05,-0.006 0.074,-0.008 V 3.538 Z" />
  <path
     style="fill:url(#k);fill-rule:evenodd;paint-order:markers stroke fill"
     id="path60"
     d="m 46.87839,3.539 c -0.85,0 -1.535,1.56 -1.535,3.496 0,1.937 0.685,3.497 1.535,3.497 h 0.53 c -0.851,0 -1.536,-1.56 -1.536,-3.497 0,-1.937 0.685,-3.496 1.535,-3.496 z" />
  <path
     style="fill:url(#l);fill-rule:evenodd"
     id="path62"
     d="m 75.39439,4.32 c -0.57,0 -1.028,1.168 -1.028,2.619 0,1.45 0.459,2.617 1.028,2.617 h 0.53 c -0.57,0 -1.029,-1.167 -1.029,-2.617 0,-1.45 0.459,-2.618 1.028,-2.618 z" />
  <path
     style="fill:#f2dda6;fill-rule:evenodd;filter:url(#m)"
     id="path64"
     d="m 46.49039,8.202 c 0.06,0.389 0.148,0.747 0.26,1.058 h 11.781 a 5.71,5.71 0 0 1 -0.26,-1.058 z m 13.898,0 c 0.06,0.389 0.147,0.747 0.26,1.058 h 4.805 a 5.71,5.71 0 0 1 -0.26,-1.058 h -4.276 z" />
  <path
     style="fill:url(#n);fill-rule:evenodd;paint-order:markers stroke fill"
     id="path66"
     d="m 60.17039,3.539 c -0.851,0 -1.536,1.56 -1.536,3.496 0,1.937 0.685,3.497 1.536,3.497 h 1.288 c -0.85,0 -1.535,-1.56 -1.535,-3.497 0,-1.937 0.684,-3.496 1.535,-3.496 h -1.058 z" />
  <path
     style="fill:url(#o);fill-rule:evenodd;paint-order:markers stroke fill"
     id="path68"
     d="m 67.08039,3.539 c -0.85,0 -1.535,1.56 -1.535,3.496 0,1.937 0.685,3.497 1.536,3.497 h 1.288 c -0.85,0 -1.535,-1.56 -1.535,-3.497 0,-1.937 0.684,-3.496 1.535,-3.496 h -1.059 z" />
  <path
     style="fill:url(#p);fill-rule:evenodd;stroke-width:0.26458001;paint-order:markers stroke fill"
     id="path70"
     d="m 19.913785,0 c -1.544353,0 -2.787879,3.2450737 -2.787879,7.27595 0,4.030876 1.243526,7.27595 2.787879,7.27595 h 0.287863 l 0.0053,5.29e-4 H 46.485025 V 14.5519 c -1.54303,-0.0042 -2.784969,-3.24772 -2.784969,-7.27595 0,-4.0242618 1.239558,-7.26457306 2.780207,-7.27542084 H 46.37787 L 46.371785,0 Z" />
  <path
     style="fill:url(#q);fill-rule:evenodd"
     id="path72"
     d="m 69.11439,4.65 c -0.57,0.01 -1.04,0.837 -1.04,2.288 0,1.45 0.444,2.466 1.013,2.466 h 0.53 c -0.57,0 -1.014,-1.016 -1.014,-2.466 0,-1.45 0.47,-2.277 1.04,-2.288 h -0.53 z" />
  <path
     style="fill:url(#r);fill-rule:evenodd"
     id="path74"
     d="m 75.92339,4.32 -0.076,0.004 c -0.56,0.03 -1.005,1.184 -1.005,2.616 0,1.435 0.448,2.59 1.01,2.615 l 0.071,10e-4 c 0.85,0.02 2.549,-1.744 2.549,-2.617 0,-0.873 -1.7,-2.618 -2.549,-2.618 z" />
  <path
     style="fill:#f2dda6;fill-rule:evenodd;filter:url(#s)"
     id="path76"
     d="m 64.82,7.91 c 0.042,0.334 0.07,0.433 0.177,0.716 l 1.488,0.081 2.196,0.124 0.92,0.056 0.386,0.024 C 69.858,8.626 69.772,8.503 69.712,8.087 L 68.541,8.045 Z m -0.32,0.885 0.003,0.022 h 0.005 z"
     transform="rotate(-1.604,69.393195,-145.19232)" />
  <path
     style="fill:url(#t);fill-rule:evenodd;paint-order:markers stroke fill"
     id="path78"
     d="m 46.17039,0 c -1.545,0 -2.788,3.246 -2.788,7.277 0,4.03 1.243,7.276 2.788,7.276 h 0.31 v -0.024 c -1.441,-0.29 -2.57,-3.414 -2.57,-7.252 0,-3.839 1.129,-6.963 2.57,-7.253 V 0.001 Z" />
</svg>
