<?xml version="1.0" encoding="UTF-8"?>
<svg width="43.847" height="9.8085" version="1.1" viewBox="0 0 65.045 14.553" xmlns="http://www.w3.org/2000/svg" xmlns:cc="http://creativecommons.org/ns#" xmlns:dc="http://purl.org/dc/elements/1.1/" xmlns:rdf="http://www.w3.org/1999/02/22-rdf-syntax-ns#" xmlns:xlink="http://www.w3.org/1999/xlink">
 <metadata>
  <rdf:RDF>
   <cc:Work rdf:about="">
    <dc:format>image/svg+xml</dc:format>
    <dc:type rdf:resource="http://purl.org/dc/dcmitype/StillImage"/>
   </cc:Work>
  </rdf:RDF>
 </metadata>
 <defs>
  <linearGradient id="e">
   <stop stop-color="#b8860b" offset="0"/>
   <stop stop-color="#b8860b" stop-opacity="0" offset="1"/>
  </linearGradient>
  <linearGradient id="a">
   <stop stop-color="#eccd7e" offset="0"/>
   <stop stop-color="#e0ae24" offset="1"/>
  </linearGradient>
  <linearGradient id="d">
   <stop offset="0"/>
   <stop stop-color="#3f3f3f" offset="1"/>
  </linearGradient>
  <linearGradient id="b">
   <stop stop-color="#e4b847" offset="0"/>
   <stop stop-color="#eccd7e" offset="1"/>
  </linearGradient>
  <linearGradient id="i" x1="41.858" x2="44.917" y1="14.403" y2=".114" gradientTransform="translate(-13.422)" gradientUnits="userSpaceOnUse" xlink:href="#a"/>
  <linearGradient id="j" x1="52.48" x2="52.734" y1="3.523" y2="10.472" gradientUnits="userSpaceOnUse" xlink:href="#b"/>
  <linearGradient id="h" x1="69.525" x2="70.798" y1="4.47" y2="9.331" gradientUnits="userSpaceOnUse" xlink:href="#b"/>
  <linearGradient id="r" x1="73.306" x2="70.735" y1="9.105" y2="5.071" gradientUnits="userSpaceOnUse" xlink:href="#b"/>
  <linearGradient id="g" x1="64.111" x2="65.821" y1="10.367" y2="3.609" gradientUnits="userSpaceOnUse">
   <stop stop-color="#eccd7e" offset="0"/>
   <stop stop-color="#e0ae24" offset="1"/>
  </linearGradient>
  <linearGradient id="p" x1="27.619" x2="27.895" y1=".104" y2="14.598" gradientTransform="scale(.99999)" gradientUnits="userSpaceOnUse" xlink:href="#d"/>
  <linearGradient id="f" x1="11.649" x2="7.929" y1="2.503" y2="11.095" gradientUnits="userSpaceOnUse" xlink:href="#d"/>
  <linearGradient id="n" x1="55.87" x2="56.037" y1="3.539" y2="10.435" gradientUnits="userSpaceOnUse" xlink:href="#d"/>
  <linearGradient id="o" x1="62.781" x2="62.836" y1="3.539" y2="10.397" gradientUnits="userSpaceOnUse" xlink:href="#d"/>
  <linearGradient id="k" x1="42.578" x2="42.697" y1="3.539" y2="6.96" gradientUnits="userSpaceOnUse" xlink:href="#e"/>
  <linearGradient id="q" x1="64.814" x2="64.82" y1="4.65" y2="6.952" gradientUnits="userSpaceOnUse" xlink:href="#e"/>
  <linearGradient id="l" x1="71.094" x2="71.212" y1="4.321" y2="7.125" gradientUnits="userSpaceOnUse" xlink:href="#e"/>
  <linearGradient id="t" x1="43.42" x2="39.849" y1="18.371" y2="3.317" gradientUnits="userSpaceOnUse" xlink:href="#a"/>
  <filter id="m" x="-.031641" y="-.56711" width="1.0633" height="2.1342" color-interpolation-filters="sRGB">
   <feGaussianBlur stdDeviation=".25"/>
  </filter>
  <filter id="s" x="-.092291" y="-.50589" width="1.1846" height="2.0118" color-interpolation-filters="sRGB">
   <feGaussianBlur stdDeviation=".211"/>
  </filter>
 </defs>
 <g transform="translate(-13.422)" fill-rule="evenodd">
  <path d="m14.808 2.436c-0.772 0-1.393 2.096-1.393 4.7 0 2.602 0.621 4.698 1.393 4.698h3.46c-0.383-1.246-0.613-2.829-0.613-4.558 0-1.864 0.268-3.555 0.707-4.84z" fill="url(#f)" style="paint-order:markers stroke fill"/>
  <path d="m68.798 3.54c-0.029 2e-3 -0.058 3e-3 -0.087 0.01a0.855 0.855 0 0 0-0.3 0.138 1.224 1.224 0 0 0-0.141 0.117c-0.184 0.177-0.35 0.432-0.488 0.748a5.434 5.434 0 0 0-0.38 1.433 7.573 7.573 0 0 0-0.07 1.042 7.96 7.96 0 0 0 0.032 0.706c0.01 0.114 0.023 0.226 0.038 0.336 0.075 0.548 0.206 1.037 0.38 1.432 0.139 0.316 0.304 0.572 0.488 0.748 0.046 0.045 0.093 0.083 0.14 0.117h1e-3a0.95 0.95 0 0 0 0.147 0.087c0.05 0.023 0.101 0.04 0.153 0.052 0.025 6e-3 0.051 6e-3 0.077 0.01a0.902 0.902 0 0 0 0.52-0.265c0.137-0.133 0.265-0.31 0.379-0.523 0.076-0.143 0.145-0.301 0.207-0.474 0.094-0.259 0.172-0.549 0.23-0.863 0.077-0.418 0.12-0.879 0.12-1.363s-0.043-0.945-0.12-1.364a5.474 5.474 0 0 0-0.23-0.863 3.665 3.665 0 0 0-0.207-0.473 2.07 2.07 0 0 0-0.38-0.523 1.222 1.222 0 0 0-0.14-0.117 0.82 0.82 0 0 0-0.369-0.149z" fill="url(#g)" style="paint-order:markers stroke fill"/>
  <path d="m75.82 4.327-6.204 0.314-0.502 0.01c-0.57 0.01-1.04 0.837-1.04 2.287s0.444 2.466 1.013 2.466h0.53l6.228 0.148c-0.558-0.032-1.004-1.184-1.004-2.614 0-1.408 0.433-2.545 0.979-2.61z" fill="url(#h)"/>
 </g>
 <path d="m33.058 0c-1.544 0-2.788 3.246-2.788 7.277 0 4.03 1.244 7.276 2.788 7.276s2.788-3.246 2.788-7.276c0-4.031-1.244-7.277-2.788-7.277z" fill="url(#i)" style="paint-order:markers stroke fill"/>
 <g transform="translate(-13.422)" fill-rule="evenodd">
  <path d="m46.884 3.538a0.701 0.701 0 0 0-0.157 0.018 0.855 0.855 0 0 0-0.3 0.139 1.224 1.224 0 0 0-0.141 0.117c-0.184 0.177-0.35 0.432-0.488 0.748a5.434 5.434 0 0 0-0.38 1.433 7.574 7.574 0 0 0-0.07 1.042 7.96 7.96 0 0 0 0.032 0.706c0.01 0.114 0.023 0.226 0.038 0.336 0.075 0.548 0.207 1.037 0.38 1.432 0.139 0.316 0.304 0.572 0.488 0.748 0.046 0.045 0.093 0.083 0.14 0.117h2e-3a0.95 0.95 0 0 0 0.147 0.087 0.774 0.774 0 0 0 0.31 0.07h21.955l-7e-3 -0.024c-0.013 2e-3 -0.025 6e-3 -0.037 7e-3 -0.026-3e-3 -0.052-3e-3 -0.077-9e-3a0.774 0.774 0 0 1-0.153-0.052 0.95 0.95 0 0 1-0.147-0.087h-1e-3a1.213 1.213 0 0 1-0.141-0.116c-0.184-0.177-0.35-0.433-0.488-0.749a5.434 5.434 0 0 1-0.38-1.432 7.739 7.739 0 0 1-0.061-1.4c0.01-0.236 0.031-0.465 0.061-0.684a5.434 5.434 0 0 1 0.38-1.433c0.139-0.316 0.304-0.571 0.488-0.747 0.046-0.045 0.093-0.084 0.14-0.118a0.855 0.855 0 0 1 0.301-0.139c0.024-5e-3 0.05-6e-3 0.074-8e-3v-2e-3z" fill="url(#j)" style="paint-order:markers stroke fill"/>
  <path d="m46.878 3.539c-0.85 0-1.535 1.56-1.535 3.496 0 1.937 0.685 3.497 1.535 3.497h0.53c-0.851 0-1.536-1.56-1.536-3.497s0.685-3.496 1.535-3.496z" fill="url(#k)" style="paint-order:markers stroke fill"/>
  <path d="m75.394 4.32c-0.57 0-1.028 1.168-1.028 2.619 0 1.45 0.459 2.617 1.028 2.617h0.53c-0.57 0-1.029-1.167-1.029-2.617s0.459-2.618 1.028-2.618z" fill="url(#l)"/>
  <path d="m46.49 8.202c0.06 0.389 0.148 0.747 0.26 1.058h11.781a5.71 5.71 0 0 1-0.26-1.058zm13.898 0c0.06 0.389 0.147 0.747 0.26 1.058h4.805a5.71 5.71 0 0 1-0.26-1.058h-4.276z" fill="#f2dda6" filter="url(#m)"/>
  <path d="m60.17 3.539c-0.851 0-1.536 1.56-1.536 3.496 0 1.937 0.685 3.497 1.536 3.497h1.288c-0.85 0-1.535-1.56-1.535-3.497s0.684-3.496 1.535-3.496h-1.058z" fill="url(#n)" style="paint-order:markers stroke fill"/>
  <path d="m67.08 3.539c-0.85 0-1.535 1.56-1.535 3.496 0 1.937 0.685 3.497 1.536 3.497h1.288c-0.85 0-1.535-1.56-1.535-3.497s0.684-3.496 1.535-3.496h-1.059z" fill="url(#o)" style="paint-order:markers stroke fill"/>
  <path d="m19.914 0c-1.5444 0-2.7879 3.2451-2.7879 7.276s1.2435 7.276 2.7879 7.276h0.28786l0.0053 5.29e-4h26.278v-5.29e-4c-1.543-0.0042-2.785-3.2477-2.785-7.276 0-4.0243 1.2396-7.2646 2.7802-7.2754h-0.10239l-0.0061-5.2916e-4z" fill="url(#p)" stroke-width=".26458" style="paint-order:markers stroke fill"/>
  <path d="m69.114 4.65c-0.57 0.01-1.04 0.837-1.04 2.288 0 1.45 0.444 2.466 1.013 2.466h0.53c-0.57 0-1.014-1.016-1.014-2.466s0.47-2.277 1.04-2.288h-0.53z" fill="url(#q)"/>
  <path d="m75.923 4.32-0.076 4e-3c-0.56 0.03-1.005 1.184-1.005 2.616 0 1.435 0.448 2.59 1.01 2.615l0.071 1e-3c0.85 0.02 2.549-1.744 2.549-2.617s-1.7-2.618-2.549-2.618z" fill="url(#r)"/>
  <path transform="rotate(-1.604,69.393,-145.19)" d="m64.82 7.91c0.042 0.334 0.07 0.433 0.177 0.716l1.488 0.081 2.196 0.124 0.92 0.056 0.386 0.024c-0.129-0.285-0.215-0.408-0.275-0.824l-1.171-0.042zm-0.32 0.885 3e-3 0.022h5e-3z" fill="#f2dda6" filter="url(#s)"/>
  <path d="m46.17 0c-1.545 0-2.788 3.246-2.788 7.277 0 4.03 1.243 7.276 2.788 7.276h0.31v-0.024c-1.441-0.29-2.57-3.414-2.57-7.252 0-3.839 1.129-6.963 2.57-7.253v-0.023z" fill="url(#t)" style="paint-order:markers stroke fill"/>
 </g>
</svg>
