<?xml version="1.0" encoding="UTF-8"?>
<!-- Created with Inkscape (http://www.inkscape.org/) -->
<svg width="20" height="91" version="1.1" xmlns="http://www.w3.org/2000/svg" xmlns:cc="http://creativecommons.org/ns#" xmlns:dc="http://purl.org/dc/elements/1.1/" xmlns:rdf="http://www.w3.org/1999/02/22-rdf-syntax-ns#" xmlns:xlink="http://www.w3.org/1999/xlink">
 <defs>
  <linearGradient id="c">
   <stop stop-color="#eccd7e" offset="0"/>
   <stop stop-color="#e0ae24" offset="1"/>
  </linearGradient>
  <linearGradient id="e">
   <stop stop-color="#b8860b" offset="0"/>
   <stop stop-color="#b8860b" stop-opacity="0" offset="1"/>
  </linearGradient>
  <linearGradient id="d">
   <stop offset="0"/>
   <stop stop-color="#3f3f3f" offset="1"/>
  </linearGradient>
  <linearGradient id="b">
   <stop stop-color="#e4b847" offset="0"/>
   <stop stop-color="#eccd7e" offset="1"/>
  </linearGradient>
  <linearGradient id="i" x1="42" x2="45" y1="14" y2=".11" gradientTransform="matrix(0 -1.2 1.2 0 194 -226)" gradientUnits="userSpaceOnUse" xlink:href="#c"/>
  <linearGradient id="j" x1="52" x2="53" y1="3.5" y2="10" gradientTransform="matrix(0 -1.2 1.2 0 194 -226)" gradientUnits="userSpaceOnUse" xlink:href="#b"/>
  <linearGradient id="h" x1="70" x2="71" y1="4.5" y2="9.3" gradientTransform="matrix(0 -1.2 1.2 0 194 -226)" gradientUnits="userSpaceOnUse" xlink:href="#b"/>
  <linearGradient id="r" x1="73" x2="71" y1="9.1" y2="5.1" gradientTransform="matrix(0 -1.2 1.2 0 194 -226)" gradientUnits="userSpaceOnUse" xlink:href="#b"/>
  <linearGradient id="g" x1="64" x2="66" y1="10" y2="3.6" gradientTransform="matrix(0 -1.2 1.2 0 194 -226)" gradientUnits="userSpaceOnUse" xlink:href="#c"/>
  <linearGradient id="p" x1="28" x2="28" y1=".1" y2="15" gradientTransform="matrix(0 -1.2 1.2 0 194 -226)" gradientUnits="userSpaceOnUse" xlink:href="#d"/>
  <linearGradient id="f" x1="12" x2="7.9" y1="2.5" y2="11" gradientTransform="matrix(0 -1.2 1.2 0 194 -226)" gradientUnits="userSpaceOnUse" xlink:href="#d"/>
  <linearGradient id="n" x1="56" x2="56" y1="3.5" y2="10" gradientTransform="matrix(0 -1.2 1.2 0 194 -226)" gradientUnits="userSpaceOnUse" xlink:href="#d"/>
  <linearGradient id="o" x1="63" x2="63" y1="3.5" y2="10" gradientTransform="matrix(0 -1.2 1.2 0 194 -226)" gradientUnits="userSpaceOnUse" xlink:href="#d"/>
  <linearGradient id="k" x1="43" x2="43" y1="3.5" y2="7" gradientTransform="matrix(0 -1.2 1.2 0 194 -226)" gradientUnits="userSpaceOnUse" xlink:href="#e"/>
  <linearGradient id="q" x1="65" x2="65" y1="4.7" y2="7" gradientTransform="matrix(0 -1.2 1.2 0 194 -226)" gradientUnits="userSpaceOnUse" xlink:href="#e"/>
  <linearGradient id="l" x1="71" x2="71" y1="4.3" y2="7.1" gradientTransform="matrix(0 -1.2 1.2 0 194 -226)" gradientUnits="userSpaceOnUse" xlink:href="#e"/>
  <linearGradient id="t" x1="43" x2="40" y1="18" y2="3.3" gradientTransform="matrix(0 -1.2 1.2 0 194 -226)" gradientUnits="userSpaceOnUse" xlink:href="#c"/>
  <filter id="m" x="-.032" y="-.57" width="1.1" height="2.1" color-interpolation-filters="sRGB">
   <feGaussianBlur stdDeviation=".25"/>
  </filter>
  <filter id="s" x="-.092" y="-.51" height="2" color-interpolation-filters="sRGB">
   <feGaussianBlur stdDeviation=".211"/>
  </filter>
 </defs>
 <metadata>
  <rdf:RDF>
   <cc:Work rdf:about="">
    <dc:format>image/svg+xml</dc:format>
    <dc:type rdf:resource="http://purl.org/dc/dcmitype/StillImage"/>
    <dc:title/>
   </cc:Work>
  </rdf:RDF>
 </metadata>
 <g transform="translate(-3.9 -7)">
  <path d="m4.1 7.2 0.52 0.22 0.48 0.33 0.44 0.42 0.4 0.51 0.7 1.3 0.56 1.5 0.43 1.7 0.3 1.9 0.18 2 0.049 0.99 0.021 0.99" fill="none" stroke="#000" stroke-width=".53"/>
  <g transform="matrix(0 .15 -.15 0 9.2 19)" stroke-width="1.2">
   <g fill-rule="evenodd" stroke-width="1.2">
    <path d="m-0.0066 5.2v3.8h14a25 15 0 0 1-0.21-1.9c0-0.68 0.074-1.3 0.21-1.9z" style="paint-order:markers stroke fill"/>
    <path d="m15 2.4c-0.77 0-1.4 2.1-1.4 4.7 0 2.6 0.62 4.7 1.4 4.7h3.5c-0.38-1.2-0.61-2.8-0.61-4.6 0-1.9 0.27-3.6 0.71-4.8z" fill="url(#f)" style="paint-order:markers stroke fill"/>
    <path d="m69 3.5c-0.029 2e-3 -0.058 3e-3 -0.087 0.01a0.86 0.86 0 0 0-0.3 0.14 1.2 1.2 0 0 0-0.14 0.12c-0.18 0.18-0.35 0.43-0.49 0.75a5.4 5.4 0 0 0-0.38 1.4 7.6 7.6 0 0 0-0.07 1 8 8 0 0 0 0.032 0.71c0.01 0.11 0.023 0.23 0.038 0.34 0.075 0.55 0.21 1 0.38 1.4 0.14 0.32 0.3 0.57 0.49 0.75 0.046 0.045 0.093 0.083 0.14 0.12h1e-3a0.95 0.95 0 0 0 0.15 0.087c0.05 0.023 0.1 0.04 0.15 0.052 0.025 6e-3 0.051 6e-3 0.077 0.01a0.9 0.9 0 0 0 0.52-0.26c0.14-0.13 0.26-0.31 0.38-0.52 0.076-0.14 0.14-0.3 0.21-0.47 0.094-0.26 0.17-0.55 0.23-0.86 0.077-0.42 0.12-0.88 0.12-1.4s-0.043-0.94-0.12-1.4a5.5 5.5 0 0 0-0.23-0.86 3.7 3.7 0 0 0-0.21-0.47 2.1 2.1 0 0 0-0.38-0.52 1.2 1.2 0 0 0-0.14-0.12 0.82 0.82 0 0 0-0.37-0.15z" fill="url(#g)" style="paint-order:markers stroke fill"/>
    <path d="m76 4.3-6.2 0.31-0.5 0.01c-0.57 0.01-1 0.84-1 2.3s0.44 2.5 1 2.5h0.53l6.2 0.15c-0.56-0.032-1-1.2-1-2.6 0-1.4 0.43-2.5 0.98-2.6z" fill="url(#h)"/>
   </g>
   <path d="m46 0c-1.5 0-2.8 3.2-2.8 7.3 0 4 1.2 7.3 2.8 7.3s2.8-3.2 2.8-7.3c0-4-1.2-7.3-2.8-7.3z" fill="url(#i)" stroke-width="1.2" style="paint-order:markers stroke fill"/>
   <g fill-rule="evenodd">
    <g stroke-width="1.2">
     <path d="m47 3.5a0.7 0.7 0 0 0-0.16 0.018 0.86 0.86 0 0 0-0.3 0.14 1.2 1.2 0 0 0-0.14 0.12c-0.18 0.18-0.35 0.43-0.49 0.75a5.4 5.4 0 0 0-0.38 1.4 7.6 7.6 0 0 0-0.07 1 8 8 0 0 0 0.032 0.71c0.01 0.11 0.023 0.23 0.038 0.34 0.075 0.55 0.21 1 0.38 1.4 0.14 0.32 0.3 0.57 0.49 0.75 0.046 0.045 0.093 0.083 0.14 0.12h2e-3a0.95 0.95 0 0 0 0.15 0.087 0.77 0.77 0 0 0 0.31 0.07h22l-7e-3 -0.024c-0.013 2e-3 -0.025 6e-3 -0.037 7e-3 -0.026-3e-3 -0.052-3e-3 -0.077-9e-3a0.77 0.77 0 0 1-0.15-0.052 0.95 0.95 0 0 1-0.15-0.087h-1e-3a1.2 1.2 0 0 1-0.14-0.12c-0.18-0.18-0.35-0.43-0.49-0.75a5.4 5.4 0 0 1-0.38-1.4 7.7 7.7 0 0 1-0.061-1.4c0.01-0.24 0.031-0.46 0.061-0.68a5.4 5.4 0 0 1 0.38-1.4c0.14-0.32 0.3-0.57 0.49-0.75 0.046-0.045 0.093-0.084 0.14-0.12a0.86 0.86 0 0 1 0.3-0.14c0.024-5e-3 0.05-6e-3 0.074-8e-3v-2e-3z" fill="url(#j)" style="paint-order:markers stroke fill"/>
     <path d="m47 3.5c-0.85 0-1.5 1.6-1.5 3.5 0 1.9 0.68 3.5 1.5 3.5h0.53c-0.85 0-1.5-1.6-1.5-3.5s0.68-3.5 1.5-3.5z" fill="url(#k)" style="paint-order:markers stroke fill"/>
     <path d="m75 4.3c-0.57 0-1 1.2-1 2.6 0 1.4 0.46 2.6 1 2.6h0.53c-0.57 0-1-1.2-1-2.6s0.46-2.6 1-2.6z" fill="url(#l)"/>
     <path d="m46 8.2c0.06 0.39 0.15 0.75 0.26 1.1h12a5.7 5.7 0 0 1-0.26-1.1zm14 0c0.06 0.39 0.15 0.75 0.26 1.1h4.8a5.7 5.7 0 0 1-0.26-1.1h-4.3z" fill="#f2dda6" filter="url(#m)"/>
     <path d="m60 3.5c-0.85 0-1.5 1.6-1.5 3.5 0 1.9 0.68 3.5 1.5 3.5h1.3c-0.85 0-1.5-1.6-1.5-3.5s0.68-3.5 1.5-3.5h-1.1z" fill="url(#n)" style="paint-order:markers stroke fill"/>
     <path d="m67 3.5c-0.85 0-1.5 1.6-1.5 3.5 0 1.9 0.68 3.5 1.5 3.5h1.3c-0.85 0-1.5-1.6-1.5-3.5s0.68-3.5 1.5-3.5h-1.1z" fill="url(#o)" style="paint-order:markers stroke fill"/>
    </g>
    <path d="m20 0c-1.5 0-2.8 3.2-2.8 7.3 0 4 1.2 7.3 2.8 7.3h0.29l0.0053 5.3e-4h26v-5.3e-4c-1.5-0.0042-2.8-3.2-2.8-7.3 0-4 1.2-7.3 2.8-7.3h-0.1l-0.0061-5.3e-4z" fill="url(#p)" stroke-width=".31" style="paint-order:markers stroke fill"/>
    <g stroke-width="1.2">
     <path d="m69 4.6c-0.57 0.01-1 0.84-1 2.3 0 1.4 0.44 2.5 1 2.5h0.53c-0.57 0-1-1-1-2.5s0.47-2.3 1-2.3h-0.53z" fill="url(#q)"/>
     <path d="m76 4.3-0.076 4e-3c-0.56 0.03-1 1.2-1 2.6 0 1.4 0.45 2.6 1 2.6l0.071 1e-3c0.85 0.02 2.5-1.7 2.5-2.6s-1.7-2.6-2.5-2.6z" fill="url(#r)"/>
     <path transform="rotate(-1.6 69 -145)" d="m65 7.9c0.042 0.33 0.07 0.43 0.18 0.72l3.7 0.2 1.3 0.08c-0.13-0.28-0.22-0.41-0.28-0.82l-1.2-0.042zm-0.32 0.88 3e-3 0.022h5e-3z" fill="#f2dda6" filter="url(#s)"/>
     <path d="m46 0c-1.5 0-2.8 3.2-2.8 7.3 0 4 1.2 7.3 2.8 7.3h0.31v-0.024c-1.4-0.29-2.6-3.4-2.6-7.3 0-3.8 1.1-7 2.6-7.3v-0.023z" fill="url(#t)" style="paint-order:markers stroke fill"/>
    </g>
   </g>
  </g>
 </g>
</svg>
