<?xml version="1.0" encoding="UTF-8" standalone="no"?>
<svg
   xmlns:dc="http://purl.org/dc/elements/1.1/"
   xmlns:cc="http://creativecommons.org/ns#"
   xmlns:rdf="http://www.w3.org/1999/02/22-rdf-syntax-ns#"
   xmlns:svg="http://www.w3.org/2000/svg"
   xmlns="http://www.w3.org/2000/svg"
   xmlns:xlink="http://www.w3.org/1999/xlink"
   id="svg8"
   version="1.1"
   viewBox="0 0 74.171867 14.553118"
   height="14.55"
   width="74.17">
  <defs
     id="defs2">
    <linearGradient
       id="linearGradient1248">
      <stop
         style="stop-color:#eccd7e;stop-opacity:1"
         offset="0"
         id="stop1244" />
      <stop
         style="stop-color:#e0ae24;stop-opacity:1;"
         offset="1"
         id="stop1246" />
    </linearGradient>
    <linearGradient
       id="linearGradient1204">
      <stop
         id="stop1200"
         offset="0"
         style="stop-color:#b8860b;stop-opacity:1;" />
      <stop
         id="stop1202"
         offset="1"
         style="stop-color:#b8860b;stop-opacity:0;" />
    </linearGradient>
    <linearGradient
       id="linearGradient912">
      <stop
         id="stop908"
         offset="0"
         style="stop-color:#eccd7e;stop-opacity:1" />
      <stop
         id="stop910"
         offset="1"
         style="stop-color:#e0ae24;stop-opacity:1;" />
    </linearGradient>
    <linearGradient
       id="linearGradient896">
      <stop
         id="stop892"
         offset="0"
         style="stop-color:#000000;stop-opacity:1;" />
      <stop
         id="stop894"
         offset="1"
         style="stop-color:#3f3f3f;stop-opacity:1" />
    </linearGradient>
    <linearGradient
       id="linearGradient860">
      <stop
         id="stop856"
         offset="0"
         style="stop-color:#e4b847;stop-opacity:1;" />
      <stop
         id="stop858"
         offset="1"
         style="stop-color:#eccd7e;stop-opacity:1" />
    </linearGradient>
    <linearGradient
       gradientUnits="userSpaceOnUse"
       y2="0.11431354"
       x2="44.917164"
       y1="14.402737"
       x1="41.858223"
       id="linearGradient852"
       xlink:href="#linearGradient912" />
    <linearGradient
       gradientUnits="userSpaceOnUse"
       y2="10.471619"
       x2="52.734245"
       y1="3.5232937"
       x1="52.480007"
       id="linearGradient866"
       xlink:href="#linearGradient860" />
    <linearGradient
       gradientUnits="userSpaceOnUse"
       y2="9.3306761"
       x2="70.797859"
       y1="4.4700484"
       x1="69.52504"
       id="linearGradient874"
       xlink:href="#linearGradient860" />
    <linearGradient
       gradientUnits="userSpaceOnUse"
       y2="5.0707898"
       x2="70.735062"
       y1="9.1053009"
       x1="73.305984"
       id="linearGradient882"
       xlink:href="#linearGradient860" />
    <linearGradient
       gradientUnits="userSpaceOnUse"
       y2="3.6087024"
       x2="65.821281"
       y1="10.367276"
       x1="64.110809"
       id="linearGradient890"
       xlink:href="#linearGradient1248" />
    <linearGradient
       gradientTransform="scale(3.7795276)"
       gradientUnits="userSpaceOnUse"
       y2="14.598192"
       x2="27.894503"
       y1="0.1038367"
       x1="27.618582"
       id="linearGradient898"
       xlink:href="#linearGradient896" />
    <linearGradient
       gradientUnits="userSpaceOnUse"
       y2="11.094909"
       x2="7.9289713"
       y1="2.5028937"
       x1="11.648712"
       id="linearGradient906"
       xlink:href="#linearGradient896" />
    <filter
       height="2.1350487"
       y="-0.56752436"
       width="1.0633487"
       x="-0.031674343"
       id="filter1110"
       style="color-interpolation-filters:sRGB">
      <feGaussianBlur
         id="feGaussianBlur1112"
         stdDeviation="0.25026249" />
    </filter>
    <linearGradient
       gradientUnits="userSpaceOnUse"
       y2="10.434525"
       x2="56.037247"
       y1="3.5386469"
       x1="55.869648"
       id="linearGradient1188"
       xlink:href="#linearGradient896" />
    <linearGradient
       y2="10.397168"
       x2="62.83617"
       y1="3.5386469"
       x1="62.780647"
       gradientUnits="userSpaceOnUse"
       id="linearGradient1198"
       xlink:href="#linearGradient896" />
    <linearGradient
       gradientUnits="userSpaceOnUse"
       y2="6.9603772"
       x2="42.696564"
       y1="3.538667"
       x1="42.57832"
       id="linearGradient1206"
       xlink:href="#linearGradient1204" />
    <linearGradient
       gradientUnits="userSpaceOnUse"
       y2="6.9523377"
       x2="64.819992"
       y1="4.6504512"
       x1="64.81382"
       id="linearGradient1214"
       xlink:href="#linearGradient1204" />
    <linearGradient
       gradientUnits="userSpaceOnUse"
       y2="7.1250744"
       x2="71.212265"
       y1="4.320622"
       x1="71.094017"
       id="linearGradient1222"
       xlink:href="#linearGradient1204" />
    <filter
       height="2.0112265"
       y="-0.50561326"
       width="1.1844556"
       x="-0.092227809"
       id="filter1294"
       style="color-interpolation-filters:sRGB">
      <feGaussianBlur
         id="feGaussianBlur1296"
         stdDeviation="0.2108599" />
    </filter>
    <linearGradient
       y2="3.3165028"
       x2="39.84861"
       y1="18.371208"
       x1="43.420418"
       gradientUnits="userSpaceOnUse"
       id="linearGradient1372"
       xlink:href="#linearGradient912" />
  </defs>
  <metadata
     id="metadata5">
    <rdf:RDF>
      <cc:Work
         rdf:about="">
        <dc:format>image/svg+xml</dc:format>
        <dc:type
           rdf:resource="http://purl.org/dc/dcmitype/StillImage" />
        <dc:title></dc:title>
      </cc:Work>
    </rdf:RDF>
  </metadata>
  <path
     style="opacity:1;fill:#000000;fill-opacity:1;fill-rule:evenodd;stroke:none;stroke-width:0.30000001;stroke-linecap:butt;stroke-linejoin:miter;stroke-miterlimit:4;stroke-dasharray:none;stroke-dashoffset:0;stroke-opacity:1;paint-order:markers stroke fill"
     d="M 1.5875,5.2244498 V 9.060908 H 9.7663292 C 9.6882348,8.4732499 9.6438562,7.8227454 9.6438562,7.1349293 c 0,-0.6817016 0.043101,-1.3269066 0.119888,-1.9104795 z"
     id="rect1363" />
  <path
     style="opacity:1;fill:url(#linearGradient906);fill-opacity:1;fill-rule:evenodd;stroke:none;stroke-width:0.30000001;stroke-linecap:butt;stroke-linejoin:miter;stroke-miterlimit:4;stroke-dasharray:none;stroke-dashoffset:0;stroke-opacity:1;paint-order:markers stroke fill"
     d="m 10.508353,2.436173 c -0.7721553,0 -1.3937143,2.095696 -1.3937143,4.698936 0,2.603244 0.621559,4.698939 1.3937143,4.698939 h 3.459737 c -0.383508,-1.246018 -0.613399,-2.82861 -0.613399,-4.558379 0,-1.864153 0.268245,-3.554714 0.706935,-4.839496 z"
     id="rect23-0-8" />
  <path
     style="opacity:1;fill:url(#linearGradient890);fill-opacity:1;fill-rule:evenodd;stroke:none;stroke-width:0.30000001;stroke-linecap:butt;stroke-linejoin:miter;stroke-miterlimit:4;stroke-dasharray:none;stroke-dashoffset:0;stroke-opacity:1;paint-order:markers stroke fill"
     d="m 64.498391,3.539301 c -0.02918,0.0029 -0.05866,0.0032 -0.08733,0.0098 -0.103489,0.02379 -0.203962,0.0711 -0.300239,0.139009 -0.04803,0.0339 -0.09522,0.07328 -0.141076,0.117306 -0.183814,0.176469 -0.34908,0.431757 -0.487825,0.747757 -0.173437,0.395002 -0.30529,0.884386 -0.379823,1.432473 -0.02981,0.219234 -0.05053,0.448032 -0.06098,0.683678 -0.0052,0.117821 -0.0083,0.237572 -0.0083,0.358635 0,0.12106 0.003,0.240294 0.0083,0.358116 0.0052,0.117824 0.01305,0.233775 0.02325,0.347784 0,0 0,5.03e-4 0,5.03e-4 0.01018,0.113829 0.02284,0.22593 0.03772,0.33538 0.07453,0.548085 0.206386,1.037469 0.379823,1.43247 0.138745,0.316 0.304011,0.571805 0.487825,0.748277 0.04595,0.04412 0.09294,0.08284 0.141076,0.116787 0,0 5.16e-4,0 5.16e-4,0 0.04801,0.03384 0.09683,0.06315 0.146762,0.0863 0.05019,0.0233 0.101081,0.04078 0.152961,0.05271 0.02536,0.0058 0.05136,0.0058 0.077,0.0088 0.183353,-0.0213 0.358822,-0.110469 0.519348,-0.264583 0.13798,-0.132387 0.265565,-0.309375 0.379304,-0.522968 0.0758,-0.14229 0.145261,-0.300802 0.20774,-0.473355 0.0937,-0.258834 0.171336,-0.54905 0.229444,-0.862997 0.0775,-0.418592 0.120407,-0.878978 0.120407,-1.363223 0,-0.484246 -0.04291,-0.945148 -0.120407,-1.363742 -0.0581,-0.313942 -0.135734,-0.60415 -0.229444,-0.862984 -0.0625,-0.172556 -0.131979,-0.331065 -0.20774,-0.473355 -0.113739,-0.213591 -0.241324,-0.390065 -0.379304,-0.522449 -0.0459,-0.04402 -0.0925,-0.0834 -0.14056,-0.117306 0,0 -5.16e-4,0 -5.16e-4,0 C 64.7493,3.605594 64.625809,3.555901 64.498385,3.539296 Z"
     id="rect23-0-0-1" />
  <path
     style="fill:url(#linearGradient874);fill-opacity:1;fill-rule:evenodd;stroke:none;stroke-width:0.26458332px;stroke-linecap:butt;stroke-linejoin:miter;stroke-opacity:1"
     d="m 71.519666,4.3273482 -6.203241,0.3136741 -0.502811,0.00931 c -0.569252,0.010477 -1.039739,0.8373559 -1.039728,2.2877171 0,1.4503585 0.44401,2.465996 1.013372,2.4659987 h 0.529167 L 71.544987,9.552361 C 70.986898,9.519997 70.54143,8.3677632 70.54143,6.9380528 c 0,-1.4078294 0.432162,-2.5452123 0.978236,-2.610694 z"
     id="path72" />
  <path
     style="opacity:1;fill:url(#linearGradient852);fill-opacity:1;fill-rule:nonzero;stroke:none;stroke-width:0.30000001;stroke-linecap:butt;stroke-linejoin:miter;stroke-miterlimit:4;stroke-dasharray:none;stroke-dashoffset:0;stroke-opacity:1;paint-order:markers stroke fill"
     d="m 42.180171,5.18e-4 c -1.544315,0 -2.787944,3.245138 -2.787944,7.276042 0,4.030903 1.243629,7.276041 2.787944,7.276041 1.544317,0 2.787945,-3.245138 2.787945,-7.276041 0,-4.030904 -1.243628,-7.276042 -2.787945,-7.276042 z"
     id="rect23-8-3-0-4-0" />
  <path
     style="opacity:1;fill:url(#linearGradient866);fill-opacity:1;fill-rule:evenodd;stroke:none;stroke-width:0.30000001;stroke-linecap:butt;stroke-linejoin:miter;stroke-miterlimit:4;stroke-dasharray:none;stroke-dashoffset:0;stroke-opacity:1;paint-order:markers stroke fill"
     d="m 42.584235,3.538454 c -0.05299,4e-5 -0.105521,0.0057 -0.157096,0.01757 -0.103489,0.02379 -0.203967,0.0711 -0.300241,0.139009 -0.04803,0.0339 -0.09522,0.07328 -0.141076,0.117306 -0.183814,0.176469 -0.349078,0.431755 -0.487826,0.747757 -0.173434,0.395002 -0.305289,0.884386 -0.379822,1.43247 -0.02981,0.219234 -0.05053,0.448033 -0.06098,0.683678 -0.0052,0.117825 -0.0083,0.237575 -0.0083,0.358635 0,0.12106 0.003,0.240295 0.0083,0.358119 0.0052,0.117822 0.01303,0.233775 0.02325,0.347782 v 5.18e-4 c 0.01019,0.113824 0.02282,0.225928 0.03772,0.335378 0.07453,0.548087 0.206388,1.037471 0.379822,1.432473 0.138748,0.316 0.304012,0.571801 0.487826,0.748273 0.04595,0.04412 0.09294,0.08284 0.141076,0.11679 h 10e-4 c 0.04801,0.03384 0.09683,0.06315 0.146762,0.0863 0.05019,0.02331 0.101081,0.04078 0.152961,0.05271 0.05174,0.01191 0.103928,0.01809 0.157096,0.01809 h 5.19e-4 21.953698 c -0.0025,-0.0082 -0.0047,-0.01659 -0.0072,-0.0248 -0.01246,0.0021 -0.02467,0.0063 -0.03721,0.0077 -0.02564,-0.003 -0.05164,-0.003 -0.077,-0.0088 -0.05188,-0.01193 -0.102769,-0.02941 -0.152961,-0.05271 -0.04993,-0.02315 -0.09875,-0.05246 -0.146761,-0.0863 h -10e-4 c -0.04813,-0.03395 -0.09512,-0.07266 -0.141076,-0.11679 -0.183814,-0.176472 -0.34908,-0.432274 -0.487825,-0.748274 -0.173437,-0.395001 -0.305292,-0.884385 -0.379823,-1.43247 -0.01487,-0.10945 -0.02754,-0.221551 -0.03772,-0.33538 v -5.16e-4 c -0.01021,-0.114009 -0.01803,-0.229957 -0.02325,-0.347784 -0.0053,-0.117822 -0.0083,-0.237056 -0.0083,-0.358116 0,-0.121063 0.0031,-0.240814 0.0083,-0.358635 0.01045,-0.235646 0.03118,-0.464447 0.06098,-0.683681 0.07453,-0.548087 0.206386,-1.037468 0.379823,-1.43247 0.138745,-0.316 0.304011,-0.571288 0.487825,-0.747757 0.04585,-0.04403 0.09305,-0.0834 0.141076,-0.117306 0.09628,-0.06791 0.196752,-0.115221 0.300241,-0.139009 0.02426,-0.0056 0.04915,-0.0063 0.0739,-0.0083 1.56e-4,-4.52e-4 -1.54e-4,-0.0011 0,-0.0016 z"
     id="rect23-0-3" />
  <path
     style="opacity:1;fill:url(#linearGradient1206);fill-opacity:1;fill-rule:evenodd;stroke:none;stroke-width:0.30000001;stroke-linecap:butt;stroke-linejoin:miter;stroke-miterlimit:4;stroke-dasharray:none;stroke-dashoffset:0;stroke-opacity:1;paint-order:markers stroke fill"
     d="m 42.57832,3.538667 c -0.85068,0 -1.535305,1.559491 -1.535305,3.496427 0,1.93694 0.684625,3.49642 1.535305,3.49642 h 0.529167 c -0.85068,0 -1.535306,-1.55948 -1.535306,-3.49642 0,-1.936936 0.684626,-3.496427 1.535306,-3.496427 z"
     id="rect23-0-6" />
  <path
     style="fill:url(#linearGradient1222);fill-opacity:1;fill-rule:evenodd;stroke:none;stroke-width:0.26458332px;stroke-linecap:butt;stroke-linejoin:miter;stroke-opacity:1"
     d="m 71.094017,4.320622 c -0.569287,0 -1.027834,1.167701 -1.027824,2.617927 0,1.450222 0.458537,2.617412 1.027824,2.617412 h 0.52917 c -0.5693,0 -1.027837,-1.16719 -1.027837,-2.617412 0,-1.450226 0.458537,-2.617927 1.027837,-2.617927 z"
     id="path72-6-1" />
  <path
     style="fill:#f2dda6;fill-opacity:1;fill-rule:evenodd;stroke:none;stroke-width:0.26458332px;stroke-linecap:butt;stroke-linejoin:miter;stroke-opacity:1;filter:url(#filter1110)"
     d="m 42.190707,8.2020467 c 0.06013,0.388628 0.14732,0.7470537 0.259932,1.0583334 H 54.231315 C 54.118774,8.9491983 54.030972,8.5905027 53.970864,8.2020467 Z m 13.896824,0 c 0.06011,0.388456 0.14791,0.7471516 0.26045,1.0583334 h 0.148313 0.380854 2.116667 0.885216 1.274342 C 61.040833,8.9491983 60.953031,8.5905027 60.892922,8.2020467 h -2.159558 v 5.292e-4 h -2.116666 v -5.292e-4 z"
     id="path526" />
  <path
     style="opacity:1;fill:url(#linearGradient1188);fill-opacity:1;fill-rule:evenodd;stroke:none;stroke-width:0.30000001;stroke-linecap:butt;stroke-linejoin:miter;stroke-miterlimit:4;stroke-dasharray:none;stroke-dashoffset:0;stroke-opacity:1;paint-order:markers stroke fill"
     d="m 55.869648,3.538647 c -0.85068,0 -1.535308,1.559489 -1.535308,3.496429 0,1.936941 0.684628,3.496427 1.535308,3.496427 h 0.22996 0.828374 0.22996 c -0.850683,0 -1.535309,-1.559486 -1.535309,-3.496427 0,-1.93694 0.684626,-3.496429 1.535309,-3.496429 h -0.22996 -0.828374 z"
     id="rect23-0-1-5-2" />
  <path
     style="opacity:1;fill:url(#linearGradient1198);fill-opacity:1;fill-rule:evenodd;stroke:none;stroke-width:0.30000001;stroke-linecap:butt;stroke-linejoin:miter;stroke-miterlimit:4;stroke-dasharray:none;stroke-dashoffset:0;stroke-opacity:1;paint-order:markers stroke fill"
     d="m 62.780648,3.538647 c -0.85068,0 -1.535308,1.559489 -1.535308,3.49643 0,1.936941 0.684628,3.496426 1.535308,3.496426 h 0.22996 0.828374 0.22996 c -0.850683,0 -1.535309,-1.559485 -1.535309,-3.496426 0,-1.936941 0.684626,-3.49643 1.535309,-3.49643 h -0.22996 -0.828374 z"
     id="rect23-0-1-5-2-4" />
  <path
     id="rect23-9"
     transform="scale(0.26458333)"
     d="M 59.011719 0 C 53.17493 0 48.474609 12.265095 48.474609 27.5 C 48.474609 42.734909 53.17493 55 59.011719 55 L 60.099609 55 C 60.106035 55.00003 60.112337 55.001946 60.119141 55.001953 L 159.43945 55.001953 L 159.43945 55 C 153.6081 54.983598 148.91406 42.724713 148.91406 27.5 C 148.91407 12.290784 153.59878 0.043225566 159.42188 0.001953125 L 159.03516 0.001953125 C 159.02722 0.0018737549 159.01966 -5.0596101e-19 159.01172 0 L 59.011719 0 z "
     style="opacity:1;fill:url(#linearGradient898);fill-opacity:1;fill-rule:evenodd;stroke:none;stroke-width:1.13385832;stroke-linecap:butt;stroke-linejoin:miter;stroke-miterlimit:4;stroke-dasharray:none;stroke-dashoffset:0;stroke-opacity:1;paint-order:markers stroke fill" />
  <path
     style="fill:url(#linearGradient1214);fill-opacity:1;fill-rule:evenodd;stroke:none;stroke-width:0.26458332px;stroke-linecap:butt;stroke-linejoin:miter;stroke-opacity:1"
     d="m 64.813822,4.650451 c -0.569251,0.01048 -1.039738,0.83684 -1.039728,2.287199 0,1.450361 0.443495,2.465996 1.012857,2.466001 h 0.529167 c -0.569363,-3e-6 -1.012857,-1.01564 -1.012857,-2.466001 -1.1e-5,-1.450359 0.470477,-2.276708 1.039728,-2.287199 -0.32556,5.29e-4 0,0 -0.529167,0 z"
     id="path72-4" />
  <path
     style="fill:url(#linearGradient882);fill-opacity:1;fill-rule:evenodd;stroke:none;stroke-width:0.26458332px;stroke-linecap:butt;stroke-linejoin:miter;stroke-opacity:1"
     d="m 71.623186,4.320589 -0.07648,0.0036 c -0.558824,0.03031 -1.005107,1.184288 -1.005107,2.615342 0,1.435063 0.448738,2.591293 1.009758,2.615346 l 0.07183,0.0016 c 0.849418,0.02021 2.548677,-1.744829 2.548677,-2.617411 0,-0.87258 -1.699019,-2.618444 -2.548677,-2.618444 z"
     id="path72-0" />
  <path
     transform="rotate(-1.6036713,67.24334,8.4106706)"
     style="fill:#f2dda6;fill-opacity:1;fill-rule:evenodd;stroke:none;stroke-width:0.26458332px;stroke-linecap:butt;stroke-linejoin:miter;stroke-opacity:1;filter:url(#filter1294)"
     d="m 64.82009,7.910225 c 0.04187,0.333828 0.07051,0.432408 0.176662,0.715809 l 1.487949,0.08127 2.195933,0.123772 0.919779,0.05543 0.38648,0.02461 C 69.858216,8.625728 69.772399,8.503264 69.712299,8.086968 l -1.171506,-0.04237 v 5.16e-4 z M 64.499887,8.79465 c 0.0015,0.007 0.0021,0.01529 0.0036,0.02222 h 0.0041 c -0.0027,-0.0071 -0.0051,-0.01506 -0.0078,-0.02222 z"
     id="path526-8-0-8" />
  <path
     id="rect23-9-5"
     d="m 41.869596,5.18e-4 c -1.544318,0 -2.787944,3.2451397 -2.787944,7.2760416 0,4.0309034 1.243626,7.2760414 2.787944,7.2760414 h 0.287837 c 0.0017,8e-6 0.0039,4.91e-4 0.0057,5.17e-4 h 0.01705 v -0.02429 c -1.441254,-0.289587 -2.569352,-3.413711 -2.569352,-7.2522704 0,-3.838561 1.128098,-6.96268366 2.569352,-7.25227038 V 5.18e-4 Z"
     style="opacity:1;fill:url(#linearGradient1372);fill-opacity:1;fill-rule:evenodd;stroke:none;stroke-width:0.30000001;stroke-linecap:butt;stroke-linejoin:miter;stroke-miterlimit:4;stroke-dasharray:none;stroke-dashoffset:0;stroke-opacity:1;paint-order:markers stroke fill" />
</svg>
