<?xml version="1.0" encoding="UTF-8"?>
<svg width="24.503mm" height="27.466mm" version="1.1" viewBox="0 0 24.503 27.466" xmlns="http://www.w3.org/2000/svg" xmlns:cc="http://creativecommons.org/ns#" xmlns:dc="http://purl.org/dc/elements/1.1/" xmlns:rdf="http://www.w3.org/1999/02/22-rdf-syntax-ns#" xmlns:xlink="http://www.w3.org/1999/xlink">
 <defs>
  <linearGradient id="linearGradient9727">
   <stop stop-color="#888a85" offset="0"/>
   <stop stop-color="#fff" stop-opacity="0" offset="1"/>
  </linearGradient>
  <linearGradient id="linearGradient8826" x1="35.222" x2="35.178" y1="22.432" y2="19.918" gradientTransform="rotate(-7.7071,-115.86,194)" gradientUnits="userSpaceOnUse">
   <stop stop-color="#eeeeec" offset="0"/>
   <stop stop-color="#9ea19c" offset="1"/>
  </linearGradient>
  <linearGradient id="linearGradient9234" x1="40.907" x2="43.343" y1="27.204" y2="26.645" gradientTransform="rotate(-7.7071,-115.86,194)" gradientUnits="userSpaceOnUse" spreadMethod="reflect">
   <stop stop-color="#eeeeec" offset="0"/>
   <stop stop-color="#aeb0ad" offset="1"/>
  </linearGradient>
  <radialGradient id="radialGradient9721" cx="38.156" cy="25.744" r="8.0033" gradientTransform="matrix(.11021 -.38244 .81896 .236 -11.044 15.455)" gradientUnits="userSpaceOnUse" spreadMethod="reflect" xlink:href="#linearGradient9727"/>
  <radialGradient id="radialGradient10173" cx="29.812" cy="23.493" r="8.0033" gradientTransform="matrix(.54137 -.21263 .31158 .79329 -17.651 -3.7233)" gradientUnits="userSpaceOnUse" xlink:href="#linearGradient9727"/>
  <linearGradient id="linearGradient15646" x1="34.327" x2="34.061" y1="31.612" y2="27.811" gradientTransform="matrix(1.0017,0,0,1,-25.017,-17.291)" gradientUnits="userSpaceOnUse">
   <stop stop-color="#c6c6bf" offset="0"/>
   <stop stop-color="#eeeeec" stop-opacity=".30127" offset="1"/>
  </linearGradient>
  <radialGradient id="radialGradient18194" cx="34.041" cy="27.552" r="3.8846" gradientTransform="matrix(2.1679 1.5612 -.69694 .96482 -47.981 -68.238)" gradientUnits="userSpaceOnUse">
   <stop offset="0"/>
   <stop stop-opacity="0" offset="1"/>
  </radialGradient>
  <filter id="filter22769" x="-.12646" y="-.15657" width="1.3157" height="1.4051" color-interpolation-filters="sRGB">
   <feFlood flood-color="rgb(0,0,12)" flood-opacity=".73333" result="flood"/>
   <feComposite in="flood" in2="SourceGraphic" operator="in" result="composite1"/>
   <feGaussianBlur in="composite1" result="blur" stdDeviation="0.92274765"/>
   <feOffset dx="1.1" dy="1.3" result="offset"/>
   <feComposite in="offset" in2="SourceGraphic" operator="out" result="composite2"/>
  </filter>
  <linearGradient id="p" x1="27.619" x2="27.895" y1=".104" y2="14.598" gradientTransform="matrix(-.017548 -.52252 -.52252 .017548 16.935 35.935)" gradientUnits="userSpaceOnUse" xlink:href="#d"/>
  <linearGradient id="d">
   <stop offset="0"/>
   <stop stop-color="#3f3f3f" offset="1"/>
  </linearGradient>
  <linearGradient id="f" x1="18.363" x2="13.393" y1="2.4359" y2="14.948" gradientTransform="matrix(-.017549 -.52252 -.52252 .017549 16.983 34.348)" gradientUnits="userSpaceOnUse" xlink:href="#d"/>
 </defs>
 <metadata>
  <rdf:RDF>
   <cc:Work rdf:about="">
    <dc:format>image/svg+xml</dc:format>
    <dc:type rdf:resource="http://purl.org/dc/dcmitype/StillImage"/>
   </cc:Work>
  </rdf:RDF>
 </metadata>
 <g transform="rotate(4.4159 -3.2027 23.517)">
  <path d="m6.0591 3.0986-4.1391 6.1528 3.0876 5.2936 6.9716 1.519 6.1037-3.5507 1.349-5.9186-4.6638-4.6747z" fill="#2e3436" filter="url(#filter22769)" opacity=".61463"/>
  <path d="m1.92 9.2514 3.0876 5.2936 2.4485-6.9033-1.397-4.5432-4.1391 6.1528" fill="#eeeeec"/>
  <g>
   <path d="m6.0591 3.0986 1.397 4.5432 6.7881-0.70354 0.52391-5.0183z" fill="url(#linearGradient8826)"/>
   <path d="m14.768 1.92 4.6638 4.6747-1.349 5.9186-3.8387-5.5751z" fill="url(#linearGradient9234)"/>
   <path d="m4.8323 9.5294c0.95596-1.9269 1.6458-2.8873 1.2267-6.4308 0.51654 1.7199 2.6681 3.6846 4.5085 3.5252 2.0399-0.17666 3.213-2.6527 4.2005-4.7038 0.3766 2.1132 0.74685 4.4414 2.1474 5.9742 0.50989 0.55804 1.5099 0.94281 2.0211 0.89259l-0.85365 3.7266-6.1037 3.5507-6.9716-1.519-1.8724-3.1636s1.3182-1.0883 1.6972-1.8521z" fill="#d7d7d3"/>
   <path d="m4.8323 9.5294c0.95596-1.9269 1.6458-2.8873 1.2267-6.4308 0.51654 1.7199 2.6681 3.6846 4.5085 3.5252 2.0399-0.17666 3.213-2.6527 4.2005-4.7038 0.3766 2.1132 0.74685 4.4414 2.1474 5.9742 0.50989 0.55804 1.5099 0.94281 2.0211 0.89259l-0.85365 3.7266-6.1037 3.5507-6.9716-1.519-1.8724-3.1636s1.3182-1.0883 1.6972-1.8521z" fill="url(#radialGradient10173)"/>
   <path d="m4.8323 9.5294c0.95596-1.9269 1.6458-2.8873 1.2267-6.4308 0.51654 1.7199 2.6681 3.6846 4.5085 3.5252 2.0399-0.17666 3.213-2.6527 4.2005-4.7038 0.3766 2.1132 0.74685 4.4414 2.1474 5.9742 0.50989 0.55804 1.5099 0.94281 2.0211 0.89259l-0.85365 3.7266-6.1037 3.5507-6.9716-1.519-1.8724-3.1636s1.3182-1.0883 1.6972-1.8521z" fill="url(#radialGradient9721)"/>
   <ellipse transform="rotate(-7.7071)" cx="9.5731" cy="12.83" rx="7.4291" ry="4.7962" fill="url(#linearGradient15646)"/>
  </g>
  <ellipse transform="rotate(-7.7071)" cx="9.5135" cy="13.049" rx="4.9268" ry="3.0553" fill="#d3d7cf"/>
  <ellipse transform="rotate(-11.358)" cx="9.0978" cy="13.288" rx="4.3091" ry="2.9127" fill="#555753" fill-opacity=".5735"/>
  <ellipse transform="rotate(-15.715)" cx="7.8745" cy="13.332" rx="3.8846" ry="2.3182" fill="url(#radialGradient18194)"/>
 </g>
 <path d="m15.45 26.653c0.01354 0.40339-1.0708 0.76466-2.4314 0.81036-1.3596 0.04566-2.4657-0.24204-2.4792-0.64543l-0.06072-1.8079c0.65778 0.17826 1.4889 0.27066 2.3924 0.24032 0.97399-0.03271 1.8528-0.20242 2.5167-0.45436z" fill="url(#f)" fill-rule="evenodd" stroke-width=".52282" style="paint-order:markers stroke fill"/>
 <path d="m16.634 23.943c0.0271 0.80698-1.6467 1.5137-3.753 1.5844-2.1062 0.07074-3.8237-0.52207-3.8508-1.329l-0.00505-0.15041-3.695e-4 -0.0028-0.51024-12.144 2.762e-4 -9e-6c-0.083269-1.2083 2.258-2.3293 3.7322-2.3774 1.4712-0.048024 3.345-0.089033 3.8714 2.1245l0.0018 0.05351 3.83e-4 0.0032z" fill="url(#p)" fill-rule="evenodd" stroke-width=".13833" style="paint-order:markers stroke fill"/>
</svg>
