<?xml version="1.0" encoding="UTF-8"?>
<svg width="39.861mm" height="9.5028mm" version="1.1" viewBox="0 0 39.861 9.5028" xmlns="http://www.w3.org/2000/svg" xmlns:cc="http://creativecommons.org/ns#" xmlns:dc="http://purl.org/dc/elements/1.1/" xmlns:rdf="http://www.w3.org/1999/02/22-rdf-syntax-ns#" xmlns:xlink="http://www.w3.org/1999/xlink">
 <defs>
  <linearGradient id="linearGradient27942">
   <stop stop-color="#fff" offset="0"/>
   <stop stop-color="#fff" stop-opacity="0" offset="1"/>
  </linearGradient>
  <radialGradient id="radialGradient2370" cx="8.9144" cy="16.65" r=".58925" gradientTransform="matrix(8.9162 .067079 -.083316 11.074 5.8919 -163)" gradientUnits="userSpaceOnUse" xlink:href="#linearGradient27942"/>
  <radialGradient id="radialGradient3442" cx="5.5761" cy="15.042" r="1.3745" gradientTransform="matrix(1.99,1.3874,-1.9042,2.7313,98.194,-42.619)" gradientUnits="userSpaceOnUse" xlink:href="#linearGradient27942"/>
 </defs>
 <metadata>
  <rdf:RDF>
   <cc:Work rdf:about="">
    <dc:format>image/svg+xml</dc:format>
    <dc:type rdf:resource="http://purl.org/dc/dcmitype/StillImage"/>
   </cc:Work>
  </rdf:RDF>
 </metadata>
 <g transform="matrix(0 -1 -1 0 39.861 9.5025)">
  <path d="m8.3243 0.4923-2.749 3.6589v31.679l2.749 3.5387z" fill="#25282d" stroke-width="1.0973"/>
  <rect x="8.2243" width="1.1785" height="39.861" ry=".71181" fill="#25282d" stroke-width="1.0973" style="mix-blend-mode:normal"/>
  <g transform="translate(-75.073,-2.0494)">
   <rect x="83.397" y="2.0494" width="1.1785" height="39.861" ry=".71181" fill="url(#radialGradient2370)" opacity=".52683" stroke-width="1.0973" style="mix-blend-mode:normal"/>
   <g fill-rule="evenodd">
    <path d="m77.625 5.8758c-0.97233 9.899-5.2216 16.642 0 32.506l3.0238-0.37798v-31.75z" fill="#625a4f"/>
    <path d="m80.648 6.2538-0.0945 15.875-3.4018-0.0945c-2.3566-5.8576-1.1409-11.045 0.47247-16.158z" fill="#f3f8f9"/>
    <path d="m80.648 38.004-0.0945-15.875-3.4018 0.0945c-2.3566 5.8576-1.1409 11.045 0.47247 16.158z" fill="#9e9682"/>
   </g>
   <path d="m83.397 2.5417-2.749 3.6589v31.679l2.749 3.5387z" fill="url(#radialGradient3442)" stroke-width="1.0973" style="mix-blend-mode:overlay"/>
  </g>
 </g>
</svg>
