<?xml version="1.0" encoding="UTF-8" standalone="no"?>
<svg
   xmlns:dc="http://purl.org/dc/elements/1.1/"
   xmlns:cc="http://creativecommons.org/ns#"
   xmlns:rdf="http://www.w3.org/1999/02/22-rdf-syntax-ns#"
   xmlns:svg="http://www.w3.org/2000/svg"
   xmlns="http://www.w3.org/2000/svg"
   xmlns:sodipodi="http://sodipodi.sourceforge.net/DTD/sodipodi-0.dtd"
   xmlns:inkscape="http://www.inkscape.org/namespaces/inkscape"
   height="60"
   viewBox="0 0 60 60"
   width="60"
   version="1.1"
   id="svg7"
   sodipodi:docname="play.svg">
  <metadata
     id="metadata11">
    <rdf:RDF>
      <cc:Work
         rdf:about="">
        <dc:format>image/svg+xml</dc:format>
        <dc:type
           rdf:resource="http://purl.org/dc/dcmitype/StillImage" />
      </cc:Work>
    </rdf:RDF>
  </metadata>
  <sodipodi:namedview
     pagecolor="#ffffff"
     bordercolor="#666666"
     borderopacity="1"
     objecttolerance="10"
     gridtolerance="10"
     guidetolerance="10"
     inkscape:pageopacity="0"
     inkscape:pageshadow="2"
     inkscape:window-width="640"
     inkscape:window-height="480"
     id="namedview9"
     showgrid="false" />
  <defs
     id="defs4">
    <style
       id="style2">
      .cls-1 {
        fill: #699f4c;
        fill-rule: evenodd;
      }
    </style>
  </defs>
  <path
     class="cls-1"
     d="M100,930a30,30,0,1,1-30,30A30,30,0,0,1,100,930Zm-5.985,38.742a1.207,1.207,0,0,0,.763,1.1,1.465,1.465,0,0,0,1.473-.082l13.14-8.683a1.371,1.371,0,0,0-.009-2.311l-13.176-8.55a1.455,1.455,0,0,0-1.471-.068,1.289,1.289,0,0,0-.755,1.165Z"
     id="play"
     transform="translate(-70 -930)" />
  <circle
     style="opacity:1;fill:#b22222;fill-opacity:1;fill-rule:evenodd;stroke:none;stroke-width:1.13385832;stroke-linecap:butt;stroke-linejoin:miter;stroke-miterlimit:4;stroke-dasharray:none;stroke-dashoffset:0;stroke-opacity:1;paint-order:markers stroke fill"
     id="path13"
     cx="30"
     cy="30"
     r="30"
     transform="matrix(1,0,0,0.6,0,24)" />
</svg>
