<?xml version="1.0" ?><svg height="60" viewBox="0 0 60 60" width="60" xmlns="http://www.w3.org/2000/svg"><defs><style>
      .cls-1 {
        fill: #699f4c;
        fill-rule: evenodd;
      }
    </style></defs><path class="cls-1" d="M100,930a30,30,0,1,1-30,30A30,30,0,0,1,100,930Zm-5.985,38.742a1.207,1.207,0,0,0,.763,1.1,1.465,1.465,0,0,0,1.473-.082l13.14-8.683a1.371,1.371,0,0,0-.009-2.311l-13.176-8.55a1.455,1.455,0,0,0-1.471-.068,1.289,1.289,0,0,0-.755,1.165Z" id="play" transform="translate(-70 -930)"/></svg>