<svg width="22.575pt" height="18.229pt" version="1.0" viewBox="0 0 22.575 18.229" xmlns="http://www.w3.org/2000/svg">
 <g transform="matrix(.1505 0 0 -.1505 -.2227 1555.5)" fill="#040404" fill-opacity=".9">
  <path d="m17.661 10335 16.105-18.226c8.8614-10.022 16.293-18.473 16.516-18.79l0.41025-0.551-0.43369 0.06c-1.9926 0.305-48.738 6.482-48.773 6.447-0.023443-0.02 0.023443-0.247 0.093772-0.493 0.21099-0.644 1.9106-2.285 3.3406-3.223 2.2974-1.512 5.5677-3.141 9.26-4.595 11.206-4.524 31.703-9.005 50.402-13.784 0.01172 0 0.94944-1.044 2.0864-2.31 2.2388-2.531 4.7355-5.134 12.554-13.128 8.3926-8.556 14.16-14.827 15.226-16.539 0.71501-1.148 1.1956-2.191 1.43-3.059 0.23443-0.902 0.22271-1.125-0.07033-1.735-0.22271-0.457-0.35164-0.562-1.2073-0.961-3.493-1.617-6.5289-5.063-7.7479-8.826-0.55091-1.7-0.7619-3.012-0.7619-4.782 0-3.212 0.83222-5.767 2.9304-9.014 0.94944-1.454 2.989-3.54 4.3838-4.478 4.8527-3.247 10.127-3.774 15.027-1.512 1.9575 0.903 4.2432 2.708 5.4856 4.325 3.1062 4.056 3.6571 9.753 1.3831 14.265-0.6564 1.29-1.7465 2.743-4.8644 6.482-0.50402 0.61-3.6805 4.068-7.0446 7.678-6.6226 7.091-7.619 8.217-10.749 11.968-4.3604 5.251-7.3376 9.025-8.7208 11.076-1.5707 2.345-3.1296 5.767-3.3055 7.291-0.03516 0.305 0 0.961 0.08205 1.442 0.28938 1.695 2.4679 3.083 3.5399 3.434 2.2036 0.727 3.5985 0.903 7.3611 0.903 1.8403 0 4.0791-0.07 4.9816-0.153 0.90255-0.08 2.8014-0.258 4.2197-0.386 7.408-0.657 9.5647-0.95 20.747-2.743 4.9699-0.797 9.5764-1.501 10.256-1.571 5.1457-0.527 6.8453-0.586 8.5098-0.305 4.7472 0.832 8.8614 4.325 10.397 8.85 0.87911 2.579 1.008 5.732 0.36336 8.381-1.0784 4.337-3.915 7.689-8.3105 9.858-2.063 1.019-4.8527 1.687-6.986 1.687-0.93772 0-3.1296-0.199-3.9736-0.363-2.989-0.563-5.6849-2.039-7.8299-4.255-2.0864-2.168-3.3875-4.653-4.0205-7.724-0.29304-1.419-0.33992-3.798-0.10549-5.064 0.14065-0.785 0.12893-0.856-0.1055-1.324-0.45713-0.891-1.6176-1.348-4.0439-1.559-1.1253-0.09-1.6644-0.08-2.8718 0.07-5.638 0.715-11.499 1.7-23.138 3.88-8.8966 1.664-11.358 2.086-14.851 2.567-1.641 0.222-3.0593 0.41-3.1414 0.41s-1.219 1.043-2.5201 2.309c-4.8761 4.747-8.0995 7.654-17.242 15.566-6.7281 5.814-11.335 9.729-14.042 11.933-6.564 5.333-12.249 8.908-16.387 10.291-1.2626 0.269-2.698 0.855-3.8446 0.281zm119.76-30.839c1.7231-0.199 2.5201-0.422 3.9384-1.137 4.3956-2.192 6.7398-6.13 6.4702-10.854-0.24615-4.161-2.485-7.22-6.3179-8.662-2.1919-0.82-3.8329-1.067-5.8138-0.844-4.501 0.469-6.7047 1.207-8.8732 2.93-1.4886 1.184-2.7311 3.071-3.2117 4.9-1.1721 4.36 1.1839 9.729 5.3802 12.261 1.0549 0.644 2.7194 1.312 3.6571 1.465 1.008 0.164 3.0827 0.141 4.7706-0.06zm-35.094-62.862c1.2776-0.328 3.0945-1.254 4.2549-2.192 0.99633-0.797 3.0476-2.965 3.9853-4.208 1.4066-1.864 2.356-4.782 2.3677-7.185 0-3.364-1.5355-6.084-4.63-8.123-3.7509-2.485-8.0644-2.485-12.249-0.02-1.3362 0.786-2.4498 1.876-3.8446 3.728-1.852 2.473-2.4732 4.22-2.485 6.951 0 3.258 1.1253 6.095 3.3055 8.334 2.0864 2.133 4.4893 3.129 7.2439 3 0.60951-0.02 1.5355-0.152 2.0512-0.281z" fill="#040404" fill-opacity=".9" stroke-width=".011722"/>
 </g>
</svg>
