<svg width="45mm" height="40mm" version="1.1" viewBox="0 0 45 40" xmlns="http://www.w3.org/2000/svg" xmlns:xlink="http://www.w3.org/1999/xlink">
 <defs>
  <linearGradient id="linearGradient135765">
   <stop stop-color="#5f1b00" offset="0"/>
   <stop stop-color="#fd4c03" offset="1"/>
  </linearGradient>
  <linearGradient id="linearGradient1318">
   <stop stop-color="#c0c0c0" offset="0"/>
   <stop stop-color="#808080" offset="1"/>
  </linearGradient>
  <linearGradient id="linearGradient1310-5">
   <stop stop-opacity="0" offset="0"/>
   <stop offset="1"/>
  </linearGradient>
  <radialGradient id="radialGradient1312-5" cx="-23.182" cy="-25.6" r="10.087" gradientTransform="matrix(.4682 .36768 -.43497 .55388 13.794 54.115)" gradientUnits="userSpaceOnUse" xlink:href="#linearGradient1310-5"/>
  <linearGradient id="linearGradient2004" x1="14.585" x2="18.642" y1="31.22" y2="26.054" gradientTransform="matrix(1.0814,0,0,1.0814,-1.698,-2.3502)" gradientUnits="userSpaceOnUse" spreadMethod="reflect" xlink:href="#linearGradient1318"/>
  <linearGradient id="linearGradient35008" x1="62.475" x2="63.273" y1="25.777" y2="25.721" gradientTransform="matrix(2.92 .47023 -.47023 2.92 -156.6 -79.765)" gradientUnits="userSpaceOnUse">
   <stop stop-color="#787776" offset="0"/>
   <stop stop-color="#292823" offset="1"/>
  </linearGradient>
  <linearGradient id="linearGradient56667" x1="210.84" x2="220.24" y1="130.52" y2="120.82" gradientTransform="matrix(.80801 .081326 -.08127 .80857 -148.78 -82.37)" gradientUnits="userSpaceOnUse" spreadMethod="reflect" xlink:href="#linearGradient1318"/>
  <linearGradient id="linearGradient58456" x1="65.499" x2="66.841" y1="27.785" y2="27.487" gradientTransform="matrix(2.92 .47023 -.47023 2.92 -161.29 -86.029)" gradientUnits="userSpaceOnUse" xlink:href="#linearGradient1310-5"/>
  <radialGradient id="radialGradient99431" cx="65.33" cy="32.705" r="1.4086" gradientTransform="matrix(3.3215,0,0,3.2688,-204.54,-73.658)" gradientUnits="userSpaceOnUse">
   <stop stop-color="#fefefe" offset="0"/>
   <stop stop-color="#81807e" stop-opacity="0" offset="1"/>
  </radialGradient>
  <linearGradient id="linearGradient135880" x1="210.84" x2="220.24" y1="130.52" y2="120.82" gradientUnits="userSpaceOnUse" spreadMethod="reflect" xlink:href="#linearGradient135765"/>
  <filter id="filter136896" x="-.077696" y="-.083506" width="1.2201" height="1.2366" color-interpolation-filters="sRGB">
   <feFlood flood-color="rgb(0,0,0)" flood-opacity=".49804" result="flood"/>
   <feComposite in="flood" in2="SourceGraphic" operator="in" result="composite1"/>
   <feGaussianBlur in="composite1" result="blur" stdDeviation="1"/>
   <feOffset dx="2" dy="2" result="offset"/>
   <feComposite in="offset" in2="offset" operator="atop" result="composite2"/>
  </filter>
  <filter id="filter137556" x="-.034316" y="-.033402" width="1.0654" height="1.0946" color-interpolation-filters="sRGB">
   <feFlood flood-color="rgb(88,88,88)" flood-opacity=".49804" result="flood"/>
   <feComposite in="flood" in2="SourceGraphic" operator="in" result="composite1"/>
   <feGaussianBlur in="composite1" result="blur" stdDeviation="0.4"/>
   <feOffset dx="-0.1" dy="0.8" result="offset"/>
   <feComposite in="offset" in2="offset" operator="atop" result="composite2"/>
  </filter>
  <radialGradient id="radialGradient2790-8" cx="-10.21" cy="29.548" r="1.5352" gradientTransform="matrix(-.086172 2.3539 -2.3256 -.085135 86.405 42.114)" gradientUnits="userSpaceOnUse">
   <stop stop-color="#fefefe" offset="0"/>
   <stop stop-color="#fff" stop-opacity="0" offset="1"/>
  </radialGradient>
  <filter id="filter27203" x="-.19822" y="-.17904" width="1.3304" height="1.3133" color-interpolation-filters="sRGB">
   <feFlood flood-color="rgb(0,0,12)" result="flood"/>
   <feComposite in="flood" in2="SourceGraphic" operator="out" result="composite1"/>
   <feGaussianBlur in="composite1" result="blur" stdDeviation="0.5"/>
   <feOffset dx="-0.6" dy="-0.4" result="offset"/>
   <feComposite in="offset" in2="SourceGraphic" operator="atop" result="composite2"/>
  </filter>
  <linearGradient id="linearGradient28826" x1="22.133" x2="25.082" y1="16.175" y2="18.589" gradientUnits="userSpaceOnUse">
   <stop stop-color="#807f7d" offset="0"/>
   <stop stop-color="#151412" offset="1"/>
  </linearGradient>
  <linearGradient id="linearGradient29692" x1="24.62" x2="25.529" y1="16.753" y2="18.444" gradientTransform="translate(-3.0829 .52566)" gradientUnits="userSpaceOnUse">
   <stop stop-color="#787776" offset="0"/>
   <stop stop-color="#353430" offset="1"/>
  </linearGradient>
  <clipPath id="clipPath1022">
   <rect transform="rotate(-9.1482)" x="-1.3878e-17" y="3.8519e-34" width="37.157" height="67.614" fill="#9b9a9a" stroke-width=".26458"/>
  </clipPath>
  <clipPath id="clipPath1030">
   <rect x="-1.3878e-17" width="37.157" height="67.614" fill="#9b9a9a" stroke-width=".26458"/>
  </clipPath>
  <clipPath id="clipPath1034">
   <rect transform="rotate(-9.1482)" x="-1.3878e-17" y="3.8519e-34" width="37.157" height="67.614" fill="#9b9a9a" stroke-width=".26458"/>
  </clipPath>
  <clipPath id="clipPath1038">
   <rect x="-1.3878e-17" width="37.157" height="67.614" fill="#9b9a9a" stroke-width=".26458"/>
  </clipPath>
  <clipPath id="clipPath1042">
   <rect x="-1.3878e-17" width="37.157" height="67.614" fill="#9b9a9a" stroke-width=".26458"/>
  </clipPath>
  <clipPath id="clipPath1046">
   <rect transform="rotate(-9.1482)" x="3.1273" y="-.028824" width="37.157" height="67.614" fill="#9b9a9a" stroke-width=".26458"/>
  </clipPath>
  <clipPath id="clipPath1050">
   <rect x="-1.3878e-17" width="37.157" height="67.614" fill="#9b9a9a" stroke-width=".26458"/>
  </clipPath>
  <clipPath id="clipPath1054">
   <rect x="-1.3878e-17" width="37.157" height="67.614" fill="#9b9a9a" stroke-width=".26458"/>
  </clipPath>
  <clipPath id="clipPath1058">
   <rect x="-1.3878e-17" width="37.157" height="67.614" fill="#9b9a9a" stroke-width=".26458"/>
  </clipPath>
  <clipPath id="clipPath1074">
   <rect transform="rotate(-5.7435)" x="183.86" y="102.01" width="45.755" height="83.202" fill="#9b9a9a" stroke-width=".32569"/>
  </clipPath>
  <clipPath id="clipPath1078">
   <rect transform="rotate(-5.7435)" x="183.21" y="101.36" width="45.755" height="83.202" fill="#9b9a9a" stroke-width=".32569"/>
  </clipPath>
  <clipPath id="clipPath1042-1">
   <rect x="-1.3878e-17" width="37.157" height="67.614" fill="#9b9a9a" stroke-width=".26458"/>
  </clipPath>
  <clipPath id="clipPath1022-5">
   <rect transform="rotate(-9.1482)" x="-1.3878e-17" y="3.8519e-34" width="37.157" height="67.614" fill="#9b9a9a" stroke-width=".26458"/>
  </clipPath>
  <filter id="filter2182" x="-.32499" y="-.21899" width="1.65" height="1.438" color-interpolation-filters="sRGB">
   <feGaussianBlur stdDeviation="1.2398214"/>
  </filter>
 </defs>
 <path transform="matrix(.80801 .081326 -.08127 .80857 -141.57 -94.444)" d="m205.75 107.2c1.5141-1.0831 13.745-2.2774 15.44-1.5077 1.695 0.76972 8.8448 10.765 9.0257 12.618 0.18093 1.8528-4.9002 13.042-6.4143 14.125-1.5141 1.0831-13.745 2.2774-15.44 1.5077-1.695-0.76971-8.8448-10.765-9.0257-12.618-0.18093-1.8528 4.9002-13.042 6.4143-14.125z" clip-path="url(#clipPath1078)" fill="url(#linearGradient135880)" filter="url(#filter137556)"/>
 <path transform="matrix(.80801 .081326 -.08127 .80857 -142.1 -94.974)" d="m205.75 107.2c1.5141-1.0831 13.745-2.2774 15.44-1.5077 1.695 0.76972 8.8448 10.765 9.0257 12.618 0.18093 1.8528-4.9002 13.042-6.4143 14.125-1.5141 1.0831-13.745 2.2774-15.44 1.5077-1.695-0.76971-8.8448-10.765-9.0257-12.618-0.18093-1.8528 4.9002-13.042 6.4143-14.125z" clip-path="url(#clipPath1074)" fill="url(#linearGradient135880)" filter="url(#filter136896)"/>
 <path transform="translate(7.2136 -12.074)" d="m8.7527 21.042c1.3114-0.75263 11.291-0.72361 12.598 0.03659 1.307 0.76022 6.2718 9.4236 6.2674 10.937-0.0044 1.5128-5.0193 10.147-6.3308 10.899-1.3114 0.75263-11.291 0.72362-12.598-0.03659s-6.2718-9.4236-6.2674-10.937c0.00438-1.5128 5.0193-10.147 6.3308-10.899z" clip-path="url(#clipPath1058)" fill="url(#linearGradient56667)" stroke-width=".81237"/>
 <ellipse transform="translate(7.2136 -12.074)" cx="15.107" cy="31.509" rx="6.9155" ry="6.9706" clip-path="url(#clipPath1054)" fill="url(#radialGradient1312-5)" stroke="url(#linearGradient2004)" stroke-width="2.1629" style="paint-order:fill markers stroke"/>
 <ellipse transform="translate(7.2136 -12.074)" cx="15.123" cy="32.599" rx="4.6787" ry="4.6045" clip-path="url(#clipPath1050)" fill="#81807e" stroke-width=".80636"/>
 <g transform="rotate(121.16 28.773 19.767)" fill="#80827d" fill-opacity=".3442" filter="url(#filter2182)" style="mix-blend-mode:normal">
  <ellipse transform="rotate(9.1482,43.526,79.437)" cx="20.249" cy="16.113" rx="4.5404" ry="4.4683" clip-path="url(#clipPath1022-5)" stroke-width=".78253" style="mix-blend-mode:screen"/>
  <path transform="translate(13.183,-5.9098)" d="m12.84 19.422-0.14226 10.771s0.25091 2.4812 2.9813 2.7927c2.325 0.2653 3.2195-1.7777 3.2195-1.7777l2.9551-11.157z" clip-path="url(#clipPath1042-1)" fill-rule="evenodd"/>
 </g>
 <ellipse transform="rotate(9.1482 77.324 19.516)" cx="23.302" cy="15.69" rx="4.5404" ry="4.4683" clip-path="url(#clipPath1046)" fill="url(#linearGradient28826)" filter="url(#filter27203)" opacity=".59295" stroke-width=".78253" style="mix-blend-mode:darken"/>
 <path transform="translate(7.2136 -12.074)" d="m12.84 19.422-0.14226 10.771s0.25091 2.4812 2.9813 2.7927c2.325 0.2653 3.2195-1.7777 3.2195-1.7777l2.9551-11.157z" clip-path="url(#clipPath1042)" fill="url(#linearGradient35008)" fill-rule="evenodd"/>
 <path transform="translate(7.2136 -12.074)" d="m12.847 19.961-0.14949 10.233s1.3458 2.7314 2.9995 3.0008c1.675 0.27278 3.2016-1.9872 3.2016-1.9872l2.8435-10.719z" clip-path="url(#clipPath1038)" fill="url(#linearGradient58456)" fill-rule="evenodd" opacity=".54808" style="mix-blend-mode:normal"/>
 <ellipse transform="rotate(9.1482 79.068 39.046)" cx="20.22" cy="16.216" rx="4.5404" ry="4.4683" clip-path="url(#clipPath1034)" fill="url(#linearGradient29692)" stroke-width=".78253" style="mix-blend-mode:normal"/>
 <ellipse transform="translate(7.2136 -12.074)" cx="15.123" cy="32.599" rx="4.6787" ry="4.6045" clip-path="url(#clipPath1030)" fill="url(#radialGradient99431)" stroke-width=".80636" style="mix-blend-mode:overlay"/>
 <ellipse transform="rotate(9.1482 79.068 39.046)" cx="20.249" cy="16.113" rx="4.5404" ry="4.4683" clip-path="url(#clipPath1022)" fill="url(#radialGradient2790-8)" stroke-width=".78253" style="mix-blend-mode:screen"/>
</svg>
