<?xml version="1.0" encoding="UTF-8"?>
<svg width="37.157mm" height="65.255mm" version="1.1" viewBox="0 0 37.157 65.255" xmlns="http://www.w3.org/2000/svg" xmlns:cc="http://creativecommons.org/ns#" xmlns:dc="http://purl.org/dc/elements/1.1/" xmlns:rdf="http://www.w3.org/1999/02/22-rdf-syntax-ns#" xmlns:xlink="http://www.w3.org/1999/xlink">
 <defs>
  <linearGradient id="linearGradient135765">
   <stop stop-color="#5f1b00" offset="0"/>
   <stop stop-color="#fd4c03" offset="1"/>
  </linearGradient>
  <linearGradient id="linearGradient99467">
   <stop stop-color="#fefefe" offset="0"/>
   <stop stop-color="#81807e" stop-opacity="0" offset="1"/>
  </linearGradient>
  <linearGradient id="linearGradient1318">
   <stop stop-color="#c0c0c0" offset="0"/>
   <stop stop-color="#808080" offset="1"/>
  </linearGradient>
  <linearGradient id="linearGradient1310-5">
   <stop stop-opacity="0" offset="0"/>
   <stop offset="1"/>
  </linearGradient>
  <filter id="filter1672" x="-1.796" y="-.59865" width="4.5919" height="2.1973" color-interpolation-filters="sRGB">
   <feGaussianBlur in="SourceGraphic" result="result8" stdDeviation="5"/>
   <feComposite in2="result8" operator="xor"/>
   <feComposite in2="result8" k2="1" operator="arithmetic" result="result16"/>
   <feComposite in="result16" in2="result16" operator="xor" result="result6"/>
   <feOffset in="result16" result="result17"/>
   <feDisplacementMap in="result17" in2="result16" result="result4" scale="100"/>
   <feComposite in="SourceGraphic" in2="result4" k1="1" k3="1" operator="arithmetic" result="result2"/>
   <feComposite in="result6" in2="result2" operator="in" result="fbSourceGraphic"/>
   <feComposite in2="SourceGraphic" operator="in" result="result14"/>
   <feComposite in="result14" in2="SourceGraphic" operator="in" result="result15"/>
  </filter>
  <linearGradient id="linearGradient1771" x1="17.05" x2="14.655" y1="28.227" y2="29.801" gradientUnits="userSpaceOnUse">
   <stop stop-color="#909090" offset="0"/>
   <stop stop-color="#909090" stop-opacity="0" offset="1"/>
  </linearGradient>
  <radialGradient id="radialGradient1312-5" cx="-23.182" cy="-25.6" r="10.087" gradientTransform="matrix(.4682 .36768 -.43497 .55388 13.794 54.115)" gradientUnits="userSpaceOnUse" xlink:href="#linearGradient1310-5"/>
  <linearGradient id="linearGradient2004" x1="14.585" x2="18.642" y1="31.22" y2="26.054" gradientTransform="matrix(1.0814 0 0 1.0814 -1.698 -2.3502)" gradientUnits="userSpaceOnUse" spreadMethod="reflect" xlink:href="#linearGradient1318"/>
  <linearGradient id="linearGradient35008" x1="62.475" x2="63.273" y1="25.777" y2="25.721" gradientTransform="matrix(2.92 .47023 -.47023 2.92 -156.6 -79.765)" gradientUnits="userSpaceOnUse">
   <stop stop-color="#787776" offset="0"/>
   <stop stop-color="#292823" offset="1"/>
  </linearGradient>
  <linearGradient id="linearGradient56667" x1="210.84" x2="220.24" y1="130.52" y2="120.82" gradientTransform="matrix(.80801 .081326 -.08127 .80857 -148.78 -82.37)" gradientUnits="userSpaceOnUse" spreadMethod="reflect" xlink:href="#linearGradient1318"/>
  <linearGradient id="linearGradient58456" x1="65.499" x2="66.841" y1="27.785" y2="27.487" gradientTransform="matrix(2.92 .47023 -.47023 2.92 -161.29 -86.029)" gradientUnits="userSpaceOnUse" xlink:href="#linearGradient1310-5"/>
  <radialGradient id="radialGradient99431" cx="65.33" cy="32.705" r="1.4086" gradientTransform="matrix(3.3215 0 0 3.2688 -204.54 -73.658)" gradientUnits="userSpaceOnUse" xlink:href="#linearGradient99467"/>
  <radialGradient id="radialGradient99431-1" cx="65.33" cy="32.705" r="1.4086" gradientTransform="matrix(1 0 0 .98413 -8.5538 -19.731)" gradientUnits="userSpaceOnUse" xlink:href="#linearGradient99467"/>
  <radialGradient id="radialGradient2790-5" cx="-10.19" cy="29.043" r="1.5352" gradientTransform="matrix(.014463 .73707 -.7207 .014142 78.415 14.889)" gradientUnits="userSpaceOnUse">
   <stop stop-color="#fefefe" offset="0"/>
   <stop stop-color="#81807e" offset="1"/>
  </radialGradient>
  <radialGradient id="radialGradient61259-7" cx="67.955" cy="24.104" r="1.5352" gradientTransform="matrix(.81033 -1.1058 1.084 .7944 -23.389 65.438)" gradientUnits="userSpaceOnUse">
   <stop stop-color="#292823" offset="0"/>
   <stop stop-opacity="0" offset="1"/>
  </radialGradient>
  <linearGradient id="linearGradient126415" x1="61.926" x2="63.062" y1="25.819" y2="25.699" gradientTransform="translate(-5.893,-15.747)" gradientUnits="userSpaceOnUse">
   <stop stop-color="#81807e" offset="0"/>
   <stop stop-color="#292823" offset="1"/>
  </linearGradient>
  <linearGradient id="linearGradient126417" x1="65.818" x2="66.841" y1="27.463" y2="27.487" gradientTransform="translate(-7.7958,-17.585)" gradientUnits="userSpaceOnUse" xlink:href="#linearGradient1310-5"/>
  <filter id="filter127917" x="-1.1991" y="-.73727" width="3.3981" height="2.4745" color-interpolation-filters="sRGB">
   <feFlood flood-color="rgb(0,0,0)" flood-opacity=".49804" result="flood"/>
   <feComposite in="flood" in2="SourceGraphic" operator="in" result="composite1"/>
   <feGaussianBlur in="composite1" result="blur" stdDeviation="1.5"/>
   <feOffset dx="0" dy="-2.77556e-17" result="offset"/>
   <feComposite in="offset" in2="offset" operator="atop" result="composite2"/>
  </filter>
  <linearGradient id="linearGradient135880" x1="210.84" x2="220.24" y1="130.52" y2="120.82" gradientUnits="userSpaceOnUse" spreadMethod="reflect" xlink:href="#linearGradient135765"/>
  <filter id="filter136896" x="-.077696" y="-.083506" width="1.2201" height="1.2366" color-interpolation-filters="sRGB">
   <feFlood flood-color="rgb(0,0,0)" flood-opacity=".49804" result="flood"/>
   <feComposite in="flood" in2="SourceGraphic" operator="in" result="composite1"/>
   <feGaussianBlur in="composite1" result="blur" stdDeviation="1"/>
   <feOffset dx="2" dy="2" result="offset"/>
   <feComposite in="offset" in2="offset" operator="atop" result="composite2"/>
  </filter>
  <filter id="filter137556" x="-.034316" y="-.033402" width="1.0654" height="1.0946" color-interpolation-filters="sRGB">
   <feFlood flood-color="rgb(88,88,88)" flood-opacity=".49804" result="flood"/>
   <feComposite in="flood" in2="SourceGraphic" operator="in" result="composite1"/>
   <feGaussianBlur in="composite1" result="blur" stdDeviation="0.4"/>
   <feOffset dx="-0.1" dy="0.8" result="offset"/>
   <feComposite in="offset" in2="offset" operator="atop" result="composite2"/>
  </filter>
  <radialGradient id="radialGradient2790-8" cx="-10.21" cy="29.548" r="1.5352" gradientTransform="matrix(-.086172 2.3539 -2.3256 -.085135 86.405 42.114)" gradientUnits="userSpaceOnUse">
   <stop stop-color="#fefefe" offset="0"/>
   <stop stop-color="#fff" stop-opacity="0" offset="1"/>
  </radialGradient>
  <filter id="filter27203" x="-.19822" y="-.17904" width="1.3304" height="1.3133" color-interpolation-filters="sRGB">
   <feFlood flood-color="rgb(0,0,12)" result="flood"/>
   <feComposite in="flood" in2="SourceGraphic" operator="out" result="composite1"/>
   <feGaussianBlur in="composite1" result="blur" stdDeviation="0.5"/>
   <feOffset dx="-0.6" dy="-0.4" result="offset"/>
   <feComposite in="offset" in2="SourceGraphic" operator="atop" result="composite2"/>
  </filter>
  <linearGradient id="linearGradient28826" x1="22.133" x2="25.082" y1="16.175" y2="18.589" gradientUnits="userSpaceOnUse">
   <stop stop-color="#807f7d" offset="0"/>
   <stop stop-color="#151412" offset="1"/>
  </linearGradient>
  <linearGradient id="linearGradient29692" x1="24.62" x2="25.529" y1="16.753" y2="18.444" gradientTransform="translate(-3.0829 .52566)" gradientUnits="userSpaceOnUse">
   <stop stop-color="#787776" offset="0"/>
   <stop stop-color="#353430" offset="1"/>
  </linearGradient>
  <clipPath id="clipPath1022">
   <rect transform="rotate(-9.1482)" x="-1.3878e-17" y="3.8519e-34" width="37.157" height="67.614" fill="#9b9a9a" stroke-width=".26458"/>
  </clipPath>
  <clipPath id="clipPath1026">
   <rect transform="rotate(251.55)" x="-35.722" y="39.444" width="12.563" height="22.861" fill="#9b9a9a" stroke-width=".08946"/>
  </clipPath>
  <clipPath id="clipPath1030">
   <rect x="-1.3878e-17" width="37.157" height="67.614" fill="#9b9a9a" stroke-width=".26458"/>
  </clipPath>
  <clipPath id="clipPath1034">
   <rect transform="rotate(-9.1482)" x="-1.3878e-17" y="3.8519e-34" width="37.157" height="67.614" fill="#9b9a9a" stroke-width=".26458"/>
  </clipPath>
  <clipPath id="clipPath1038">
   <rect x="-1.3878e-17" width="37.157" height="67.614" fill="#9b9a9a" stroke-width=".26458"/>
  </clipPath>
  <clipPath id="clipPath1042">
   <rect x="-1.3878e-17" width="37.157" height="67.614" fill="#9b9a9a" stroke-width=".26458"/>
  </clipPath>
  <clipPath id="clipPath1046">
   <rect transform="rotate(-9.1482)" x="3.1273" y="-.028824" width="37.157" height="67.614" fill="#9b9a9a" stroke-width=".26458"/>
  </clipPath>
  <clipPath id="clipPath1050">
   <rect x="-1.3878e-17" width="37.157" height="67.614" fill="#9b9a9a" stroke-width=".26458"/>
  </clipPath>
  <clipPath id="clipPath1054">
   <rect x="-1.3878e-17" width="37.157" height="67.614" fill="#9b9a9a" stroke-width=".26458"/>
  </clipPath>
  <clipPath id="clipPath1058">
   <rect x="-1.3878e-17" width="37.157" height="67.614" fill="#9b9a9a" stroke-width=".26458"/>
  </clipPath>
  <clipPath id="clipPath1062">
   <rect x="3.4431" y="5.5198" width="29.828" height="54.278" fill="#9b9a9a" stroke-width=".2124"/>
  </clipPath>
  <clipPath id="clipPath1066">
   <rect x=".068034" y="-1.2749" width="37.157" height="67.614" fill="#9b9a9a" stroke-width=".26458"/>
  </clipPath>
  <clipPath id="clipPath1070">
   <rect x=".068034" y="-1.2749" width="37.157" height="67.614" fill="#9b9a9a" stroke-width=".26458"/>
  </clipPath>
  <clipPath id="clipPath1074">
   <rect transform="rotate(-5.7435)" x="183.86" y="102.01" width="45.755" height="83.202" fill="#9b9a9a" stroke-width=".32569"/>
  </clipPath>
  <clipPath id="clipPath1078">
   <rect transform="rotate(-5.7435)" x="183.21" y="101.36" width="45.755" height="83.202" fill="#9b9a9a" stroke-width=".32569"/>
  </clipPath>
 </defs>
 <metadata>
  <rdf:RDF>
   <cc:Work rdf:about="">
    <dc:format>image/svg+xml</dc:format>
    <dc:type rdf:resource="http://purl.org/dc/dcmitype/StillImage"/>
   </cc:Work>
  </rdf:RDF>
 </metadata>
 <path transform="matrix(.80801 .081326 -.08127 .80857 -148.78 -82.37)" d="m205.75 107.2c1.5141-1.0831 13.745-2.2774 15.44-1.5077 1.695 0.76972 8.8448 10.765 9.0257 12.618 0.18093 1.8528-4.9002 13.042-6.4143 14.125-1.5141 1.0831-13.745 2.2774-15.44 1.5077-1.695-0.76971-8.8448-10.765-9.0257-12.618-0.18093-1.8528 4.9002-13.042 6.4143-14.125z" clip-path="url(#clipPath1078)" fill="url(#linearGradient135880)" filter="url(#filter137556)"/>
 <path transform="matrix(.80801 .081326 -.08127 .80857 -149.31 -82.899)" d="m205.75 107.2c1.5141-1.0831 13.745-2.2774 15.44-1.5077 1.695 0.76972 8.8448 10.765 9.0257 12.618 0.18093 1.8528-4.9002 13.042-6.4143 14.125-1.5141 1.0831-13.745 2.2774-15.44 1.5077-1.695-0.76971-8.8448-10.765-9.0257-12.618-0.18093-1.8528 4.9002-13.042 6.4143-14.125z" clip-path="url(#clipPath1074)" fill="url(#linearGradient135880)" filter="url(#filter136896)"/>
 <g transform="translate(-.067979 1.2749)" clip-path="url(#clipPath1070)" fill="#696969" stroke-width=".26458px" aria-label="ON">
  <path d="m14.423 3.2513q0-0.48783-0.10749-0.8723-0.10749-0.38861-0.31833-0.65732t-0.5209-0.40928q-0.31006-0.14469-0.7152-0.14469-0.38861 0-0.70693 0.15296-0.31419 0.14883-0.53744 0.42168-0.22324 0.27285-0.34726 0.65732-0.11989 0.38034-0.11989 0.84336t0.11576 0.84336 0.33073 0.64906q0.21911 0.26872 0.52503 0.41755 0.31006 0.14883 0.6904 0.14883 0.40514 0 0.72347-0.13643 0.31833-0.14056 0.53744-0.40101 0.21911-0.26458 0.33486-0.64492 0.11576-0.38447 0.11576-0.86816zm0.83509-0.086816q0 0.64906-0.17777 1.1741-0.17363 0.5209-0.50436 0.88883-0.3266 0.3638-0.79788 0.56224-0.47129 0.1943-1.0666 0.1943-0.57051 0-1.0335-0.19017-0.46302-0.1943-0.78962-0.5457-0.3266-0.35553-0.50436-0.85163t-0.17777-1.1038q0-0.63665 0.17363-1.1534 0.17777-0.5209 0.51263-0.8847 0.33486-0.36794 0.81442-0.56637 0.48369-0.19844 1.0955-0.19844 0.55811 0 1.0129 0.1943 0.45475 0.1943 0.77308 0.54984 0.32246 0.3514 0.49609 0.84336t0.17363 1.0873z"/>
  <path d="m21.121 5.9095h-0.79788l-2.6169-3.4727q-0.02894-0.033073-0.09922-0.13229-0.06615-0.10335-0.14469-0.22324-0.07441-0.11989-0.14469-0.23564-0.07028-0.11576-0.10335-0.17777v4.2416h-0.75241v-5.3495h0.85576l2.497 3.3528q0.06201 0.086816 0.14469 0.21084 0.08268 0.11989 0.16123 0.24805 0.07855 0.12402 0.14469 0.23978 0.07028 0.11162 0.10749 0.1819v-4.2333h0.74827z"/>
 </g>
 <g transform="translate(-.067979 1.2749)" clip-path="url(#clipPath1066)" fill="#696969" stroke-width=".26458px" aria-label="OFF">
  <path d="m13.522 61.247q0-0.48783-0.10749-0.8723-0.10749-0.38861-0.31833-0.65732-0.21084-0.26872-0.5209-0.40928-0.31006-0.14469-0.7152-0.14469-0.38861 0-0.70693 0.15296-0.31419 0.14883-0.53744 0.42168-0.22324 0.27285-0.34727 0.65732-0.11989 0.38034-0.11989 0.84336t0.11576 0.84336 0.33073 0.64906q0.21911 0.26872 0.52503 0.41755 0.31006 0.14883 0.6904 0.14883 0.40514 0 0.72347-0.13643 0.31833-0.14056 0.53744-0.40101 0.21911-0.26458 0.33486-0.64492 0.11576-0.38447 0.11576-0.86816zm0.83509-0.08682q0 0.64906-0.17777 1.1741-0.17363 0.5209-0.50436 0.88884-0.3266 0.3638-0.79788 0.56224-0.47129 0.1943-1.0666 0.1943-0.57051 0-1.0335-0.19017-0.46302-0.1943-0.78962-0.5457-0.3266-0.35553-0.50436-0.85163-0.17777-0.49609-0.17777-1.1038 0-0.63665 0.17363-1.1534 0.17777-0.5209 0.51263-0.8847 0.33486-0.36794 0.81442-0.56637 0.48369-0.19844 1.0955-0.19844 0.5581 0 1.0129 0.1943 0.45475 0.1943 0.77308 0.54984 0.32246 0.3514 0.49609 0.84336t0.17363 1.0873z"/>
  <path d="m18.21 59.25h-1.8604v1.6082h1.8686v0.68626h-1.8686v2.3606h-0.80615v-5.3495h2.6665z"/>
  <path d="m22.014 59.25h-1.8604v1.6082h1.8686v0.68626h-1.8686v2.3606h-0.80615v-5.3495h2.6665z"/>
 </g>
 <rect transform="matrix(1.2457 0 0 1.2457 -4.289 -6.876)" x="12.271" y="16.333" width="6.6817" height="20.045" rx="3.3409" ry="3.3409" clip-path="url(#clipPath1062)" fill="url(#linearGradient1771)" filter="url(#filter1672)" opacity=".28" style="paint-order:fill markers stroke"/>
 <path transform="translate(5.4674e-5)" d="m8.7527 21.042c1.3114-0.75263 11.291-0.72361 12.598 0.03659 1.307 0.76022 6.2718 9.4236 6.2674 10.937-0.0044 1.5128-5.0193 10.147-6.3308 10.899-1.3114 0.75263-11.291 0.72362-12.598-0.03659s-6.2718-9.4236-6.2674-10.937c0.00438-1.5128 5.0193-10.147 6.3308-10.899z" clip-path="url(#clipPath1058)" fill="url(#linearGradient56667)" stroke-width=".81237"/>
 <ellipse transform="translate(5.4674e-5)" cx="15.107" cy="31.509" rx="6.9155" ry="6.9706" clip-path="url(#clipPath1054)" fill="url(#radialGradient1312-5)" stroke="url(#linearGradient2004)" stroke-width="2.1629" style="paint-order:fill markers stroke"/>
 <ellipse transform="translate(5.4674e-5)" cx="15.123" cy="32.599" rx="4.6787" ry="4.6045" clip-path="url(#clipPath1050)" fill="#81807e" stroke-width=".80636"/>
 <ellipse transform="rotate(9.1482 -1.7438 -19.53)" cx="23.302" cy="15.69" rx="4.5404" ry="4.4683" clip-path="url(#clipPath1046)" fill="url(#linearGradient28826)" filter="url(#filter27203)" opacity=".59295" stroke-width=".78253" style="mix-blend-mode:darken"/>
 <path transform="translate(5.4674e-5)" d="m12.84 19.422-0.14226 10.771s0.25091 2.4812 2.9813 2.7927c2.325 0.2653 3.2195-1.7777 3.2195-1.7777l2.9551-11.157z" clip-path="url(#clipPath1042)" fill="url(#linearGradient35008)" fill-rule="evenodd"/>
 <path transform="translate(5.4674e-5)" d="m12.847 19.961-0.14949 10.233s1.3458 2.7314 2.9995 3.0008c1.675 0.27278 3.2016-1.9872 3.2016-1.9872l2.8435-10.719z" clip-path="url(#clipPath1038)" fill="url(#linearGradient58456)" fill-rule="evenodd" opacity=".54808" style="mix-blend-mode:normal"/>
 <ellipse transform="rotate(9.1482 2.8849e-5 .00034158)" cx="20.22" cy="16.216" rx="4.5404" ry="4.4683" clip-path="url(#clipPath1034)" fill="url(#linearGradient29692)" stroke-width=".78253" style="mix-blend-mode:normal"/>
 <ellipse transform="translate(5.4674e-5)" cx="15.123" cy="32.599" rx="4.6787" ry="4.6045" clip-path="url(#clipPath1030)" fill="url(#radialGradient99431)" stroke-width=".80636" style="mix-blend-mode:overlay"/>
 <g transform="matrix(-.93587 2.8056 -2.8056 -.93587 105.65 -116.66)" clip-path="url(#clipPath1026)" filter="url(#filter127917)">
  <ellipse cx="57.581" cy="12.259" rx="1.4086" ry="1.3863" fill="#81807e" stroke-width=".24277"/>
  <ellipse cx="57.581" cy="12.259" rx="1.4086" ry="1.3863" fill="#81807e" stroke-width=".24277"/>
  <path d="m56.033 8.4341 0.5002 3.4237s0.21713 0.81474 1.1453 0.77197c0.79038-0.03642 0.97914-0.76652 0.97914-0.76652l0.37765-4.0474z" fill="url(#linearGradient126415)" fill-rule="evenodd"/>
  <ellipse cx="57.581" cy="12.26" rx="1.4086" ry="1.3863" fill="url(#radialGradient99431-1)" stroke-width=".24277" style="mix-blend-mode:overlay"/>
  <path d="m56.033 8.4341 0.5002 3.4242s0.59606 0.83943 1.1626 0.84044c0.5738 1e-3 0.96192-0.83544 0.96192-0.83544l0.37765-4.0474z" fill="url(#linearGradient126417)" fill-rule="evenodd" opacity=".54808" style="mix-blend-mode:normal"/>
  <ellipse cx="57.508" cy="7.9446" rx="1.5352" ry="1.5108" fill="url(#radialGradient2790-5)" stroke-width=".26458" style="mix-blend-mode:normal"/>
  <ellipse cx="57.508" cy="7.9441" rx="1.5352" ry="1.5108" fill="url(#radialGradient61259-7)" opacity=".59295" stroke-width=".26458" style="mix-blend-mode:darken"/>
 </g>
 <ellipse transform="rotate(9.1482 2.8849e-5 .00034158)" cx="20.249" cy="16.113" rx="4.5404" ry="4.4683" clip-path="url(#clipPath1022)" fill="url(#radialGradient2790-8)" stroke-width=".78253" style="mix-blend-mode:screen"/>
</svg>
