<svg width="45mm" height="40mm" version="1.1" viewBox="0 0 45 40" xmlns="http://www.w3.org/2000/svg" xmlns:xlink="http://www.w3.org/1999/xlink">
 <defs>
  <linearGradient id="linearGradient1318">
   <stop stop-color="#c0c0c0" offset="0"/>
   <stop stop-color="#808080" offset="1"/>
  </linearGradient>
  <linearGradient id="linearGradient1310-5">
   <stop stop-opacity="0" offset="0"/>
   <stop offset="1"/>
  </linearGradient>
  <linearGradient id="linearGradient2004" x1="14.585" x2="18.642" y1="31.22" y2="26.054" gradientTransform="matrix(1.0814,0,0,1.0814,2.5353,-2.3502)" gradientUnits="userSpaceOnUse" spreadMethod="reflect" xlink:href="#linearGradient1318"/>
  <linearGradient id="linearGradient56667" x1="210.84" x2="220.24" y1="130.52" y2="120.82" gradientTransform="matrix(.80801 .081326 -.08127 .80857 -144.55 -82.37)" gradientUnits="userSpaceOnUse" spreadMethod="reflect" xlink:href="#linearGradient1318"/>
  <linearGradient id="linearGradient1702" x1="62.931" x2="64.453" y1="25.883" y2="26.014" gradientTransform="matrix(2.9385 -.33589 -.33589 -2.9385 -157.72 135.81)" gradientUnits="userSpaceOnUse">
   <stop stop-color="#9b9a9a" offset="0"/>
   <stop stop-color="#292823" offset="1"/>
  </linearGradient>
  <linearGradient id="linearGradient1704" x1="66.412" x2="66.683" y1="26.59" y2="26.59" gradientTransform="matrix(2.9385 -.33589 -.33589 -2.9385 -162.69 141.85)" gradientUnits="userSpaceOnUse" xlink:href="#linearGradient1310-5"/>
  <linearGradient id="linearGradient4206" x1="20.888" x2="28.174" y1="18.827" y2="18.163" gradientTransform="translate(6.0333,24.13)" gradientUnits="userSpaceOnUse">
   <stop stop-color="#9f9e9e" offset="0"/>
   <stop stop-color="#191816" offset="1"/>
  </linearGradient>
  <linearGradient id="linearGradient9122" x1="210.84" x2="220.24" y1="130.52" y2="120.82" gradientUnits="userSpaceOnUse" spreadMethod="reflect">
   <stop stop-color="#5f1b00" offset="0"/>
   <stop stop-color="#fd4c03" offset="1"/>
  </linearGradient>
  <clipPath id="clipPath1195-3">
   <rect transform="rotate(-5.7435)" x="178" y="101.36" width="45.755" height="83.202" fill="#9b9a9a" stroke-width=".32569"/>
  </clipPath>
  <filter id="filter137556-6" x="-.034316" y="-.033402" width="1.0654" height="1.0946" color-interpolation-filters="sRGB">
   <feFlood flood-color="rgb(88,88,88)" flood-opacity=".49804" result="flood"/>
   <feComposite in="flood" in2="SourceGraphic" operator="in" result="composite1"/>
   <feGaussianBlur in="composite1" result="blur" stdDeviation="0.4"/>
   <feOffset dx="-0.1" dy="0.8" result="offset"/>
   <feComposite in="offset" in2="offset" operator="atop" result="composite2"/>
  </filter>
  <clipPath id="clipPath1191-3">
   <rect transform="rotate(-5.7435)" x="178.65" y="102.01" width="45.755" height="83.202" fill="#9b9a9a" stroke-width=".32569"/>
  </clipPath>
  <filter id="filter136896-5" x="-.077696" y="-.083506" width="1.2201" height="1.2366" color-interpolation-filters="sRGB">
   <feFlood flood-color="rgb(0,0,0)" flood-opacity=".49804" result="flood"/>
   <feComposite in="flood" in2="SourceGraphic" operator="in" result="composite1"/>
   <feGaussianBlur in="composite1" result="blur" stdDeviation="1"/>
   <feOffset dx="2" dy="2" result="offset"/>
   <feComposite in="offset" in2="offset" operator="atop" result="composite2"/>
  </filter>
  <clipPath id="clipPath1175-9">
   <rect width="37.157" height="67.614" fill="#9b9a9a" stroke-width=".26458"/>
  </clipPath>
  <radialGradient id="radialGradient1312-5-4" cx="-23.182" cy="-25.6" r="10.087" gradientTransform="matrix(.4682 .36768 -.43497 .55388 18.027 54.115)" gradientUnits="userSpaceOnUse" xlink:href="#linearGradient1310-5"/>
  <clipPath id="clipPath1171-3">
   <rect width="37.157" height="67.614" fill="#9b9a9a" stroke-width=".26458"/>
  </clipPath>
  <clipPath id="clipPath1167-6">
   <rect transform="scale(1,-1)" width="37.157" height="67.614" fill="#9b9a9a" stroke-width=".26458"/>
  </clipPath>
  <clipPath id="clipPath1163-5">
   <rect width="37.157" height="67.614" fill="#9b9a9a" stroke-width=".26458"/>
  </clipPath>
  <radialGradient id="radialGradient99431-8-2-5" cx="65.33" cy="32.705" r="1.4086" gradientTransform="matrix(3.3215,0,0,3.2688,-200.36,-138.6)" gradientUnits="userSpaceOnUse">
   <stop stop-color="#fefefe" offset="0"/>
   <stop stop-color="#81807e" stop-opacity="0" offset="1"/>
  </radialGradient>
  <clipPath id="clipPath1159-5">
   <rect transform="scale(1,-1)" width="37.157" height="67.614" fill="#9b9a9a" stroke-width=".26458"/>
  </clipPath>
  <clipPath id="clipPath1155-7">
   <rect width="37.157" height="67.614" fill="#9b9a9a" stroke-width=".26458"/>
  </clipPath>
  <filter id="filter2182-3" x="-.32096" y="-.16214" width="1.6419" height="1.3243" color-interpolation-filters="sRGB">
   <feGaussianBlur stdDeviation="1.2398214"/>
  </filter>
  <clipPath id="clipPath1022-5-2">
   <rect transform="rotate(-9.1482)" x="-1.3878e-17" y="3.8519e-34" width="37.157" height="67.614" fill="#9b9a9a" stroke-width=".26458"/>
  </clipPath>
  <clipPath id="clipPath1042-1-6">
   <rect x="-1.3878e-17" width="37.157" height="67.614" fill="#9b9a9a" stroke-width=".26458"/>
  </clipPath>
  <clipPath id="clipPath1151-6">
   <rect transform="rotate(-11.775)" width="37.157" height="67.614" fill="#9b9a9a" stroke-width=".26458"/>
  </clipPath>
  <radialGradient id="radialGradient2790-8-7-9" cx="-10.125" cy="29.918" r="1.5352" gradientTransform="matrix(-.61859 2.6408 -2.7436 -.64266 101.78 86.823)" gradientUnits="userSpaceOnUse">
   <stop stop-color="#fefefe" offset="0"/>
   <stop stop-color="#fff" stop-opacity="0" offset="1"/>
  </radialGradient>
  <clipPath id="clipPath1147-0">
   <rect transform="rotate(-11.775)" x="-1.1881" y="1.7721" width="37.157" height="67.614" fill="#9b9a9a" stroke-width=".26458"/>
  </clipPath>
  <filter id="filter10111-2" x="-.15068" y="-.15311" width="1.3014" height="1.3062" color-interpolation-filters="sRGB">
   <feGaussianBlur stdDeviation="0.57012524"/>
  </filter>
 </defs>
 <g transform="translate(-26.533,-14.293)">
  <path transform="matrix(.80801 .081326 -.08127 .80857 -115.03 -80.152)" d="m205.75 107.2c1.5141-1.0831 13.745-2.2774 15.44-1.5077 1.695 0.76972 8.8448 10.765 9.0257 12.618 0.18093 1.8528-4.9002 13.042-6.4143 14.125-1.5141 1.0831-13.745 2.2774-15.44 1.5077-1.695-0.76971-8.8448-10.765-9.0257-12.618-0.18093-1.8528 4.9002-13.042 6.4143-14.125z" clip-path="url(#clipPath1195-3)" fill="url(#linearGradient9122)" filter="url(#filter137556-6)"/>
  <path transform="matrix(.80801 .081326 -.08127 .80857 -115.56 -80.681)" d="m205.75 107.2c1.5141-1.0831 13.745-2.2774 15.44-1.5077 1.695 0.76972 8.8448 10.765 9.0257 12.618 0.18093 1.8528-4.9002 13.042-6.4143 14.125-1.5141 1.0831-13.745 2.2774-15.44 1.5077-1.695-0.76971-8.8448-10.765-9.0257-12.618-0.18093-1.8528 4.9002-13.042 6.4143-14.125z" clip-path="url(#clipPath1191-3)" fill="url(#linearGradient9122)" filter="url(#filter136896-5)"/>
  <path transform="translate(29.516,2.2183)" d="m12.986 21.042c1.3114-0.75263 11.291-0.72361 12.598 0.03659 1.307 0.76022 6.2718 9.4236 6.2674 10.937-0.0044 1.5128-5.0193 10.147-6.3308 10.899-1.3114 0.75263-11.291 0.72362-12.598-0.03659s-6.2718-9.4236-6.2674-10.937c0.00438-1.5128 5.0193-10.147 6.3308-10.899z" clip-path="url(#clipPath1175-9)" fill="url(#linearGradient56667)" stroke-width=".81237"/>
  <ellipse transform="translate(29.516,2.2183)" cx="19.34" cy="31.509" rx="6.9155" ry="6.9706" clip-path="url(#clipPath1171-3)" fill="url(#radialGradient1312-5-4)" stroke="url(#linearGradient2004)" stroke-width="2.1629" style="paint-order:fill markers stroke"/>
  <ellipse transform="matrix(1,0,0,-1,29.516,2.2183)" cx="19.308" cy="-32.344" rx="4.6787" ry="4.6045" clip-path="url(#clipPath1167-6)" fill="#81807e" stroke-width=".80636"/>
  <path transform="rotate(-4.1168,63.557,-377.38)" d="m16.095 44.494 0.35161-10.766s0.36438-2.4671 3.1062-2.6531c2.3347-0.15845 3.1346 1.9234 3.1346 1.9234l2.4406 11.281z" clip-path="url(#clipPath1163-5)" fill="url(#linearGradient1702)" fill-rule="evenodd"/>
  <ellipse transform="matrix(1,0,0,-1,29.516,2.2183)" cx="19.308" cy="-32.344" rx="4.6787" ry="4.6045" clip-path="url(#clipPath1159-5)" fill="url(#radialGradient99431-8-2-5)" stroke-width=".80636" style="mix-blend-mode:overlay"/>
  <path transform="rotate(-4.1168,63.557,-377.38)" d="m16.127 43.955 0.31972-10.229s1.4696-2.6668 3.1339-2.8602c1.6857-0.19572 3.1071 2.1319 3.1071 2.1319l2.3492 10.838z" clip-path="url(#clipPath1155-7)" fill="url(#linearGradient1704)" fill-rule="evenodd" opacity=".54808" style="mix-blend-mode:normal"/>
  <g transform="rotate(145.61,38.356,34.369)" fill="#80827d" fill-opacity=".3442" filter="url(#filter2182-3)" style="mix-blend-mode:normal">
   <ellipse transform="rotate(9.1482,43.526,79.437)" cx="20.249" cy="16.113" rx="4.5404" ry="4.4683" clip-path="url(#clipPath1022-5-2)" stroke-width=".78253" style="mix-blend-mode:screen"/>
   <path transform="translate(13.183,-5.9098)" d="m12.84 19.422-0.14226 10.771s0.25091 2.4812 2.9813 2.7927c2.325 0.2653 3.2195-1.7777 3.2195-1.7777l2.9551-11.157z" clip-path="url(#clipPath1042-1-6)" fill-rule="evenodd"/>
  </g>
  <ellipse transform="rotate(7.6582,-13.183,205.41)" cx="29.336" cy="39.82" rx="4.5404" ry="4.4683" clip-path="url(#clipPath1151-6)" fill="url(#linearGradient4206)" stroke-width=".78253" style="mix-blend-mode:normal"/>
  <ellipse transform="rotate(7.6582,1.187,212.39)" cx="28.576" cy="41.568" rx="4.5404" ry="4.4683" clip-path="url(#clipPath1147-0)" fill="url(#radialGradient2790-8-7-9)" filter="url(#filter10111-2)" stroke-width=".78253" style="mix-blend-mode:overlay"/>
 </g>
</svg>
